STARTFONT 2.3
FONT -FontForge-Courgette-Book-R-Normal--11-110-72-72-P-57-ISO10646-1
SIZE 11 72 72  4
FONTBOUNDINGBOX 15 15 -2 -3
COMMENT "Generated by fontforge, http://fontforge.sourceforge.net"
COMMENT "Copyright (c) 2012, Sorkin Type Co (www.sorkintype.com) with Reserved Font Name "Courgette"."
STARTPROPERTIES 41
FOUNDRY "FontForge"
FAMILY_NAME "Courgette"
WEIGHT_NAME "Book"
SLANT "R"
SETWIDTH_NAME "Normal"
ADD_STYLE_NAME ""
PIXEL_SIZE 11
POINT_SIZE 110
RESOLUTION_X 72
RESOLUTION_Y 72
SPACING "P"
AVERAGE_WIDTH 57
CHARSET_REGISTRY "ISO10646"
CHARSET_ENCODING "1"
FONTNAME_REGISTRY ""
CHARSET_COLLECTIONS "ISO8859-2 ISO8859-9 ISO8859-4 ISO10646-1"
BITS_PER_PIXEL 4
FONT_NAME "Courgette-Regular"
FACE_NAME "Courgette Regular"
COPYRIGHT "Copyright (c) 2012, Sorkin Type Co (www.sorkintype.com) with Reserved Font Name "Courgette"."
FONT_VERSION "1.002"
FONT_ASCENT 9
FONT_DESCENT 2
UNDERLINE_POSITION -1
UNDERLINE_THICKNESS 1
X_HEIGHT 5
CAP_HEIGHT 8
DEFAULT_CHAR 1
RAW_ASCENT 799
RAW_DESCENT 200
NORM_SPACE 3
RELATIVE_WEIGHT 40
RELATIVE_SETWIDTH 50
SUPERSCRIPT_X 0
SUPERSCRIPT_Y 5
SUPERSCRIPT_SIZE 7
SUBSCRIPT_X 0
SUBSCRIPT_Y 1
SUBSCRIPT_SIZE 7
AVG_LOWERCASE_WIDTH 54
AVG_UPPERCASE_WIDTH 65
ENDPROPERTIES
CHARS 407
STARTCHAR .null.dup1
ENCODING 0
SWIDTH 0 0
DWIDTH 0 0
BBX 1 1 0 0
BITMAP
00
ENDCHAR
STARTCHAR uni0001
ENCODING 1
SWIDTH 0 0
DWIDTH 0 0
BBX 1 1 0 0
BITMAP
00
ENDCHAR
STARTCHAR uni0002
ENCODING 2
SWIDTH 0 0
DWIDTH 0 0
BBX 1 1 0 0
BITMAP
00
ENDCHAR
STARTCHAR uni0003
ENCODING 3
SWIDTH 0 0
DWIDTH 0 0
BBX 1 1 0 0
BITMAP
00
ENDCHAR
STARTCHAR uni0004
ENCODING 4
SWIDTH 0 0
DWIDTH 0 0
BBX 1 1 0 0
BITMAP
00
ENDCHAR
STARTCHAR uni0005
ENCODING 5
SWIDTH 0 0
DWIDTH 0 0
BBX 1 1 0 0
BITMAP
00
ENDCHAR
STARTCHAR uni0006
ENCODING 6
SWIDTH 0 0
DWIDTH 0 0
BBX 1 1 0 0
BITMAP
00
ENDCHAR
STARTCHAR uni0007
ENCODING 7
SWIDTH 0 0
DWIDTH 0 0
BBX 1 1 0 0
BITMAP
00
ENDCHAR
STARTCHAR uni0008
ENCODING 8
SWIDTH 0 0
DWIDTH 0 0
BBX 1 1 0 0
BITMAP
00
ENDCHAR
STARTCHAR uni0009
ENCODING 9
SWIDTH 0 0
DWIDTH 0 0
BBX 1 1 0 0
BITMAP
00
ENDCHAR
STARTCHAR nonmarkingreturn
ENCODING 13
SWIDTH 0 0
DWIDTH 0 0
BBX 1 1 0 0
BITMAP
00
ENDCHAR
STARTCHAR uni0015
ENCODING 21
SWIDTH 0 0
DWIDTH 0 0
BBX 1 1 0 0
BITMAP
00
ENDCHAR
STARTCHAR uni0016
ENCODING 22
SWIDTH 0 0
DWIDTH 0 0
BBX 1 1 0 0
BITMAP
00
ENDCHAR
STARTCHAR uni0017
ENCODING 23
SWIDTH 0 0
DWIDTH 0 0
BBX 1 1 0 0
BITMAP
00
ENDCHAR
STARTCHAR uni0018
ENCODING 24
SWIDTH 0 0
DWIDTH 0 0
BBX 1 1 0 0
BITMAP
00
ENDCHAR
STARTCHAR uni0019
ENCODING 25
SWIDTH 0 0
DWIDTH 0 0
BBX 1 1 0 0
BITMAP
00
ENDCHAR
STARTCHAR space
ENCODING 32
SWIDTH 307 0
DWIDTH 3 0
BBX 1 1 0 0
BITMAP
00
ENDCHAR
STARTCHAR exclam
ENCODING 33
SWIDTH 417 0
DWIDTH 5 0
BBX 5 10 0 -1
BITMAP
0006D0
001E70
007E00
00C700
01F100
03B000
035000
063000
1F7000
010000
ENDCHAR
STARTCHAR quotedbl
ENCODING 34
SWIDTH 437 0
DWIDTH 5 0
BBX 5 3 1 7
BITMAP
1D4B70
6B2E10
633700
ENDCHAR
STARTCHAR numbersign
ENCODING 35
SWIDTH 725 0
DWIDTH 8 0
BBX 8 9 0 0
BITMAP
0000C2A4
0003C1E0
00086690
06BFBFB7
002C0D00
00492B00
3BDCDDA0
00C0B100
04719000
ENDCHAR
STARTCHAR dollar
ENCODING 36
SWIDTH 545 0
DWIDTH 6 0
BBX 7 13 0 -2
BITMAP
00000420
00001D10
002ACB00
00C60A40
04E00D50
06E08E10
03F62200
009E1000
151E5000
5B0B3000
1DC80000
0A200000
05000000
ENDCHAR
STARTCHAR percent
ENCODING 37
SWIDTH 876 0
DWIDTH 10 0
BBX 9 9 0 0
BITMAP
02CC300950
0D68807A00
2F1A54D100
0C281D3000
0010B67C50
0007A6C4C0
004C1B55C0
01D20D3B60
094006C900
ENDCHAR
STARTCHAR ampersand
ENCODING 38
SWIDTH 563 0
DWIDTH 6 0
BBX 7 9 0 0
BITMAP
004CC900
03F40A30
0B905E10
0C50C600
06CA0000
0BB30000
6C08DA10
99059000
3CB91000
ENDCHAR
STARTCHAR quotesingle
ENCODING 39
SWIDTH 231 0
DWIDTH 3 0
BBX 3 3 1 7
BITMAP
1D40
6B00
6300
ENDCHAR
STARTCHAR parenleft
ENCODING 40
SWIDTH 478 0
DWIDTH 5 0
BBX 6 14 1 -3
BITMAP
000024
0005B1
004C10
01D300
089000
1E3000
5D0000
990000
B70000
C60000
B70000
790000
2D0000
078000
ENDCHAR
STARTCHAR parenright
ENCODING 41
SWIDTH 478 0
DWIDTH 5 0
BBX 6 14 -1 -3
BITMAP
001500
000A60
0003D0
0000E2
0000D5
0000D4
0000E3
0002F0
0007B0
000C50
005C00
01D300
0B5000
940000
ENDCHAR
STARTCHAR asterisk
ENCODING 42
SWIDTH 518 0
DWIDTH 6 0
BBX 5 5 1 4
BITMAP
00A700
34E310
1CEB40
1BC200
414800
ENDCHAR
STARTCHAR plus
ENCODING 43
SWIDTH 617 0
DWIDTH 7 0
BBX 7 6 0 1
BITMAP
000A0000
000C0000
000C0000
1BBEBB10
000C0000
000A0000
ENDCHAR
STARTCHAR comma
ENCODING 44
SWIDTH 312 0
DWIDTH 3 0
BBX 2 4 0 -2
BITMAP
26
6F
4C
92
ENDCHAR
STARTCHAR hyphen
ENCODING 45
SWIDTH 452 0
DWIDTH 5 0
BBX 4 1 1 3
BITMAP
ABB1
ENDCHAR
STARTCHAR period
ENCODING 46
SWIDTH 270 0
DWIDTH 3 0
BBX 2 2 0 0
BITMAP
9D
56
ENDCHAR
STARTCHAR slash
ENCODING 47
SWIDTH 405 0
DWIDTH 4 0
BBX 8 13 -1 -2
BITMAP
00000032
000001D1
00000870
00002D10
00009700
0002D000
000A6000
003D0000
00A50000
03C00000
0B400000
4B000000
A3000000
ENDCHAR
STARTCHAR zero
ENCODING 48
SWIDTH 621 0
DWIDTH 7 0
BBX 7 9 0 0
BITMAP
0005BD50
005D14C0
01E404D0
08B007B0
0D500C70
2F103F20
4D00AA00
3D06D100
0ACA2000
ENDCHAR
STARTCHAR one
ENCODING 49
SWIDTH 405 0
DWIDTH 4 0
BBX 5 9 0 0
BITMAP
002D50
05EE60
022F20
005C00
00A700
01E100
05A000
0B3000
280000
ENDCHAR
STARTCHAR two
ENCODING 50
SWIDTH 524 0
DWIDTH 6 0
BBX 6 9 0 0
BITMAP
006CC4
03E14C
08C05C
04B1D8
000BD1
00AE30
09E300
5D2000
CCBBA0
ENDCHAR
STARTCHAR three
ENCODING 51
SWIDTH 537 0
DWIDTH 6 0
BBX 6 9 0 0
BITMAP
005CC7
03E22F
07D03E
0391B9
004DC1
005C60
1607B0
7A0C60
3CB800
ENDCHAR
STARTCHAR four
ENCODING 52
SWIDTH 529 0
DWIDTH 6 0
BBX 6 9 0 0
BITMAP
009600
00D700
03F254
0A90C7
3E12F2
2CBDE7
000D30
004B00
008200
ENDCHAR
STARTCHAR five
ENCODING 53
SWIDTH 540 0
DWIDTH 6 0
BBX 7 9 0 0
BITMAP
004EBB80
00964720
01E10000
07ECC100
0740E500
0000E500
4803F100
970B8000
3CB70000
ENDCHAR
STARTCHAR six
ENCODING 54
SWIDTH 554 0
DWIDTH 6 0
BBX 7 9 0 0
BITMAP
0007CB10
008A1B40
03D04B10
0AABB100
0EB0A600
2F40A800
3F00D500
1E07D000
08CB2000
ENDCHAR
STARTCHAR seven
ENCODING 55
SWIDTH 473 0
DWIDTH 5 0
BBX 5 8 1 1
BITMAP
5C98D0
000B50
008A00
04D100
0D5000
5D0000
A80000
850000
ENDCHAR
STARTCHAR eight
ENCODING 56
SWIDTH 524 0
DWIDTH 6 0
BBX 6 9 0 0
BITMAP
004DE6
01D36E
04C02F
03F189
00CD90
05CF30
4D0970
6B0760
1CA900
ENDCHAR
STARTCHAR nine
ENCODING 57
SWIDTH 554 0
DWIDTH 6 0
BBX 7 9 0 0
BITMAP
003BC700
01E32F00
08A02F10
0B606E00
0B71DB00
04CAC700
0101D100
5B0A5000
3CA50000
ENDCHAR
STARTCHAR colon
ENCODING 58
SWIDTH 312 0
DWIDTH 3 0
BBX 3 6 0 0
BITMAP
0AC0
0560
0000
0000
8E00
4700
ENDCHAR
STARTCHAR semicolon
ENCODING 59
SWIDTH 312 0
DWIDTH 3 0
BBX 3 7 0 -2
BITMAP
09D0
0560
0000
2600
6F00
4C00
9200
ENDCHAR
STARTCHAR less
ENCODING 60
SWIDTH 637 0
DWIDTH 7 0
BBX 7 6 0 0
BITMAP
00003B20
002AB200
08D50000
1AB20000
004C8100
00005C10
ENDCHAR
STARTCHAR equal
ENCODING 61
SWIDTH 617 0
DWIDTH 7 0
BBX 7 3 0 3
BITMAP
0ABBBB20
00000000
1BBBBB10
ENDCHAR
STARTCHAR greater
ENCODING 62
SWIDTH 606 0
DWIDTH 7 0
BBX 7 6 0 1
BITMAP
1C600000
019C4000
0003CA10
0004C810
02AA2000
2B300000
ENDCHAR
STARTCHAR question
ENCODING 63
SWIDTH 516 0
DWIDTH 6 0
BBX 6 9 0 0
BITMAP
003CC6
00B71E
00A56C
0007E4
008E30
01D200
014000
1B6000
1D6000
ENDCHAR
STARTCHAR at
ENCODING 64
SWIDTH 905 0
DWIDTH 10 0
BBX 10 10 0 -2
BITMAP
00028BBA20
005A3004D2
03A06B8868
0C25C1E73B
3C0C51E13A
6A1F26C085
6A1F2B94B0
4D09A3C910
0BA1011000
007CB92000
ENDCHAR
STARTCHAR A
ENCODING 65
SWIDTH 615 0
DWIDTH 7 0
BBX 9 9 -1 0
BITMAP
000002AE10
00002B6C00
0001B2B700
000862F200
005FCEFA00
01D52B8000
03C00D5000
0C500F3000
A9000BB200
ENDCHAR
STARTCHAR B
ENCODING 66
SWIDTH 551 0
DWIDTH 6 0
BBX 7 9 0 0
BITMAP
06CCBB10
08830A80
02F40B70
09A2AC10
0EEEC100
3D11E300
6900D400
7806D000
2CBA2000
ENDCHAR
STARTCHAR C
ENCODING 67
SWIDTH 533 0
DWIDTH 6 0
BBX 7 9 0 0
BITMAP
0006CC30
008C1590
04E21C80
0C808D10
2F201100
5E000000
7D000000
4E107000
09CC7000
ENDCHAR
STARTCHAR D
ENCODING 68
SWIDTH 630 0
DWIDTH 7 0
BBX 8 9 0 0
BITMAP
07DCB910
055207B0
00C901F1
04F202F1
0AA006D0
0E400D70
4E009C00
7B19C100
3CC80000
ENDCHAR
STARTCHAR E
ENCODING 69
SWIDTH 509 0
DWIDTH 6 0
BBX 7 9 0 0
BITMAP
002BCB20
02E80860
08B07E20
0B705300
05C81000
09D60000
5E200000
8B04A000
2CCB3000
ENDCHAR
STARTCHAR F
ENCODING 70
SWIDTH 518 0
DWIDTH 6 0
BBX 7 9 0 0
BITMAP
1CCDCB70
490C4000
003F0000
008C0000
05EDB300
04F20000
08B00000
1E400000
88000000
ENDCHAR
STARTCHAR G
ENCODING 71
SWIDTH 598 0
DWIDTH 7 0
BBX 7 9 0 0
BITMAP
0006CC40
008D24A0
04F21B80
0C907D10
2F300000
5E05FB40
6C00B100
4E129000
09C91000
ENDCHAR
STARTCHAR H
ENCODING 72
SWIDTH 668 0
DWIDTH 7 0
BBX 9 9 -1 0
BITMAP
00BD700590
0019900990
000C700D50
001F302F10
00BFBBDE20
00B900C400
02F302E000
09A007A000
3B1006D400
ENDCHAR
STARTCHAR I
ENCODING 73
SWIDTH 327 0
DWIDTH 4 0
BBX 5 9 -1 0
BITMAP
009D80
0017C0
000990
000D60
002F10
007C00
00D600
05D000
1C3000
ENDCHAR
STARTCHAR J
ENCODING 74
SWIDTH 393 0
DWIDTH 4 0
BBX 7 12 -2 -3
BITMAP
0008DD60
004C2A90
00000D60
00002F30
00007D00
0000C800
0003F200
0009B000
002F3000
00A90000
07C10000
8A100000
ENDCHAR
STARTCHAR K
ENCODING 75
SWIDTH 616 0
DWIDTH 7 0
BBX 9 9 -1 0
BITMAP
01DD303D00
001C603F10
000F40AA00
003F17B100
008C890000
00DCD10000
03F2C90000
0B904F4000
5B1007E500
ENDCHAR
STARTCHAR L
ENCODING 76
SWIDTH 517 0
DWIDTH 6 0
BBX 8 9 -1 0
BITMAP
00007CA0
0005D1B2
000D72E1
004F3E90
009A1700
00E50000
04D00000
0B646400
2ECAAD10
ENDCHAR
STARTCHAR M
ENCODING 77
SWIDTH 931 0
DWIDTH 10 0
BBX 13 9 -2 0
BITMAP
0000007E305E30
0000079E14CE10
00003B7A0C8B00
0000B3C668B600
0004B1F2C2F200
000C34E585D000
005B05DB18A000
01D306E8098000
1C7003C105D700
ENDCHAR
STARTCHAR N
ENCODING 78
SWIDTH 708 0
DWIDTH 8 0
BBX 9 9 0 0
BITMAP
000AA02E40
008E900D70
01C9800D40
0869902E00
0D18A08700
3C06D0C100
8803F77000
B500DE1000
A2005B0000
ENDCHAR
STARTCHAR O
ENCODING 79
SWIDTH 655 0
DWIDTH 7 0
BBX 8 9 0 0
BITMAP
0005CC90
006E20D3
02F400C5
0AB000E4
1E4004F1
3E000AA0
4C003F20
2D02D600
07CC5000
ENDCHAR
STARTCHAR P
ENCODING 80
SWIDTH 553 0
DWIDTH 6 0
BBX 8 9 -1 0
BITMAP
003BDBA1
00CA1089
0028806B
001E50C8
005E1AC1
00BED810
02F30000
09A00000
3C100000
ENDCHAR
STARTCHAR Q
ENCODING 81
SWIDTH 655 0
DWIDTH 7 0
BBX 8 11 0 -2
BITMAP
0006CC70
008C10E2
04E100E4
0B8001F2
0F3006D0
2F101D60
1F509B00
0549C100
04DF6000
0004DB21
000018C8
ENDCHAR
STARTCHAR R
ENCODING 82
SWIDTH 623 0
DWIDTH 7 0
BBX 8 10 -1 -1
BITMAP
003BDBA2
0078406B
000A906C
001F41D7
006E6D90
00BDF400
02F3A900
08A03F30
2C1008E4
00000010
ENDCHAR
STARTCHAR S
ENCODING 83
SWIDTH 474 0
DWIDTH 5 0
BBX 6 9 0 0
BITMAP
005CC5
04E10E
0A904E
0B80E8
08E130
01E800
325E00
B62D00
5DB300
ENDCHAR
STARTCHAR T
ENCODING 84
SWIDTH 471 0
DWIDTH 5 0
BBX 7 9 0 0
BITMAP
1BCCDB90
29098000
000E4000
003F1000
007B0000
00B60000
01E10000
07900000
2C100000
ENDCHAR
STARTCHAR U
ENCODING 85
SWIDTH 624 0
DWIDTH 7 0
BBX 8 9 0 0
BITMAP
00C90087
00A901E4
01E407D0
06D00E80
0C706F40
3F11DE00
8A07AB00
B7378800
7D706D50
ENDCHAR
STARTCHAR V
ENCODING 86
SWIDTH 587 0
DWIDTH 6 0
BBX 8 9 0 0
BITMAP
0ACA008A
013F106D
00AC00A9
02F504E2
07D02D50
0C61C700
0F2B7000
1F970000
0B800000
ENDCHAR
STARTCHAR W
ENCODING 87
SWIDTH 941 0
DWIDTH 10 0
BBX 11 9 0 0
BITMAP
0BC9000009B0
015E003308E0
00CA05F506E0
04F34FA007B0
09B1DE500B70
0E5A7F102E10
2F4A4D00A700
3DA13D06A000
0C500CB70000
ENDCHAR
STARTCHAR X
ENCODING 88
SWIDTH 552 0
DWIDTH 6 0
BBX 9 9 -1 0
BITMAP
0005A01B90
000A90C700
000A989000
0008CC0000
0006F20000
000BE00000
0079E40000
05C0AB1000
5C202DC000
ENDCHAR
STARTCHAR Y
ENCODING 89
SWIDTH 580 0
DWIDTH 6 0
BBX 8 12 0 -3
BITMAP
00C80087
00B801E3
01F307C0
07C01E70
0D607F20
4E11DC00
9A08C700
C647D100
8C679000
002D1000
01C40000
3B500000
ENDCHAR
STARTCHAR Z
ENCODING 90
SWIDTH 501 0
DWIDTH 6 0
BBX 8 9 -1 0
BITMAP
005BA8D5
000007F4
00005F70
0002E800
001D8000
00A90000
05A00000
0D9BCA00
1E810810
ENDCHAR
STARTCHAR bracketleft
ENCODING 91
SWIDTH 396 0
DWIDTH 4 0
BBX 6 13 0 -2
BITMAP
000295
0008A0
000D40
003E00
008900
00C400
02E000
07A000
0C5000
2F1000
7B0000
B60000
CB1000
ENDCHAR
STARTCHAR backslash
ENCODING 92
SWIDTH 464 0
DWIDTH 5 0
BBX 5 13 0 -2
BITMAP
320000
590000
2C0000
0D1000
094000
068000
02B000
00D000
00A300
007700
003B00
000D00
000920
ENDCHAR
STARTCHAR bracketright
ENCODING 93
SWIDTH 394 0
DWIDTH 4 0
BBX 7 13 -1 -2
BITMAP
0001AD10
00003D00
00008800
0000D300
0002E000
00079000
000C4000
001E0000
006A0000
00B50000
01E10000
06B00000
4C500000
ENDCHAR
STARTCHAR asciicircum
ENCODING 94
SWIDTH 540 0
DWIDTH 6 0
BBX 5 5 1 4
BITMAP
01D100
07F700
1D5D00
780940
B10290
ENDCHAR
STARTCHAR underscore
ENCODING 95
SWIDTH 530 0
DWIDTH 6 0
BBX 8 1 -2 -2
BITMAP
7BBBBBB4
ENDCHAR
STARTCHAR grave
ENCODING 96
SWIDTH 219 0
DWIDTH 2 0
BBX 2 3 0 6
BITMAP
69
7A
1A
ENDCHAR
STARTCHAR a
ENCODING 97
SWIDTH 541 0
DWIDTH 6 0
BBX 6 6 0 0
BITMAP
009CAC
0A90D8
4E12F2
8A09B0
993D90
4D96E5
ENDCHAR
STARTCHAR b
ENCODING 98
SWIDTH 525 0
DWIDTH 6 0
BBX 6 10 0 0
BITMAP
00A400
00E400
02F000
06B000
0A9BD1
0EA0E5
4F20E4
7A04E1
871C70
2CC700
ENDCHAR
STARTCHAR c
ENCODING 99
SWIDTH 465 0
DWIDTH 5 0
BBX 5 6 0 0
BITMAP
01ACA0
0B91F0
5E17A0
9A0000
9A0420
2DB800
ENDCHAR
STARTCHAR d
ENCODING 100
SWIDTH 557 0
DWIDTH 6 0
BBX 8 10 0 0
BITMAP
000001D1
000006B0
00000B60
00001F20
008CBD00
08A0B800
2F20E400
7C06F100
8A1DC000
3DA4D700
ENDCHAR
STARTCHAR e
ENCODING 101
SWIDTH 471 0
DWIDTH 5 0
BBX 5 6 0 0
BITMAP
009C90
0A92F0
3F2AB0
7EB810
7B0230
1CBB20
ENDCHAR
STARTCHAR f
ENCODING 102
SWIDTH 393 0
DWIDTH 4 0
BBX 7 12 -1 -2
BITMAP
00006C60
0002E3D0
000898B0
000C6320
001F2000
03CFB600
01B80000
00D40000
02F00000
07B00000
0D500000
2B100000
ENDCHAR
STARTCHAR g
ENCODING 103
SWIDTH 526 0
DWIDTH 6 0
BBX 6 9 0 -3
BITMAP
009C87
0A90B9
3F11E4
8B06E0
8A2EA0
3DAC50
002D00
01C500
1B5000
ENDCHAR
STARTCHAR h
ENCODING 104
SWIDTH 555 0
DWIDTH 6 0
BBX 6 10 0 0
BITMAP
006900
009900
00C600
01F200
04C4D7
0996A9
0DA1F5
4E16D0
A80990
D206D4
ENDCHAR
STARTCHAR i
ENCODING 105
SWIDTH 286 0
DWIDTH 3 0
BBX 4 9 0 0
BITMAP
00D6
0072
0000
0AA0
0980
0D20
5B00
9800
7E20
ENDCHAR
STARTCHAR j
ENCODING 106
SWIDTH 281 0
DWIDTH 3 0
BBX 6 12 -2 -3
BITMAP
0004E2
000180
000000
000B90
000A80
000C50
001F20
005C00
00B600
02D100
0B5000
960000
ENDCHAR
STARTCHAR k
ENCODING 107
SWIDTH 497 0
DWIDTH 5 0
BBX 6 10 0 0
BITMAP
006800
009800
00C500
01F100
04C0C6
0972E5
0D8C50
4EE200
A8AA10
C22DC1
ENDCHAR
STARTCHAR l
ENCODING 108
SWIDTH 279 0
DWIDTH 3 0
BBX 4 10 0 0
BITMAP
0096
00C6
00E3
03E0
0890
0C50
2F10
6B00
9800
6D30
ENDCHAR
STARTCHAR m
ENCODING 109
SWIDTH 814 0
DWIDTH 9 0
BBX 9 6 0 0
BITMAP
0A94C65D50
09B87A5C60
0DB0CA3F20
3E24E19A00
980A90B610
C20B308D20
ENDCHAR
STARTCHAR n
ENCODING 110
SWIDTH 561 0
DWIDTH 6 0
BBX 6 6 0 0
BITMAP
0A95C8
09B79A
0DA1E6
3E25E1
9808A0
C205D4
ENDCHAR
STARTCHAR o
ENCODING 111
SWIDTH 514 0
DWIDTH 6 0
BBX 6 6 0 0
BITMAP
01ACB0
0BA0E3
4E11F3
8B06E0
891D60
2CC700
ENDCHAR
STARTCHAR p
ENCODING 112
SWIDTH 550 0
DWIDTH 6 0
BBX 7 9 -1 -3
BITMAP
00D6AD40
00CD2990
00F60A80
04E01E40
08C09A00
0CBC9000
1F100000
6B000000
A5000000
ENDCHAR
STARTCHAR q
ENCODING 113
SWIDTH 533 0
DWIDTH 6 0
BBX 6 9 0 -3
BITMAP
008C87
09A0BB
3F10E5
7B06E0
8A1D80
3DAB30
001E00
004B00
003B00
ENDCHAR
STARTCHAR r
ENCODING 114
SWIDTH 407 0
DWIDTH 4 0
BBX 5 6 0 0
BITMAP
0C77C0
0AAB90
0DA000
3F3000
8B0000
A40000
ENDCHAR
STARTCHAR s
ENCODING 115
SWIDTH 423 0
DWIDTH 5 0
BBX 5 6 0 0
BITMAP
04CD40
0D4780
0B9000
04F300
91B600
8CA100
ENDCHAR
STARTCHAR t
ENCODING 116
SWIDTH 358 0
DWIDTH 4 0
BBX 5 8 0 0
BITMAP
002400
00B700
0AEB40
08A000
0C5000
1F1000
2E1400
0CD300
ENDCHAR
STARTCHAR u
ENCODING 117
SWIDTH 553 0
DWIDTH 6 0
BBX 6 6 0 0
BITMAP
09A03D
09A0A9
0E53F3
5E1BD0
A97990
8C46D4
ENDCHAR
STARTCHAR v
ENCODING 118
SWIDTH 510 0
DWIDTH 6 0
BBX 6 6 0 0
BITMAP
09A0D4
08A0B7
0D40C4
5D03C0
991B30
7EA200
ENDCHAR
STARTCHAR w
ENCODING 119
SWIDTH 750 0
DWIDTH 8 0
BBX 9 6 0 0
BITMAP
0B90444D00
0890D51F10
0C47E01D00
2E2E906700
7AA882B000
7C23EA1000
ENDCHAR
STARTCHAR x
ENCODING 120
SWIDTH 467 0
DWIDTH 5 0
BBX 7 6 -1 0
BITMAP
00762C50
00B7C500
00AE6000
007D0000
03CF2000
1C27C400
ENDCHAR
STARTCHAR y
ENCODING 121
SWIDTH 549 0
DWIDTH 6 0
BBX 6 9 0 -3
BITMAP
08B02D
08B09B
0D62F6
4E1AF2
9A59B0
7C5A60
002D00
01C400
2B5000
ENDCHAR
STARTCHAR z
ENCODING 122
SWIDTH 430 0
DWIDTH 5 0
BBX 5 6 0 0
BITMAP
09BAD0
013BA0
01CA00
1C9000
9B4200
CB9C00
ENDCHAR
STARTCHAR braceleft
ENCODING 123
SWIDTH 424 0
DWIDTH 5 0
BBX 6 13 0 -2
BITMAP
00009B
0004E1
000990
000C50
002F10
009B00
0BB200
078000
089000
0C5000
2E1000
6C0000
3C3000
ENDCHAR
STARTCHAR bar
ENCODING 124
SWIDTH 306 0
DWIDTH 3 0
BBX 2 13 1 -2
BITMAP
75
96
96
96
96
96
95
95
95
95
95
95
83
ENDCHAR
STARTCHAR braceright
ENCODING 125
SWIDTH 424 0
DWIDTH 5 0
BBX 6 13 -1 -2
BITMAP
0000B8
00006B
0000A8
0001E3
0004D0
0003C0
0008E2
005D10
00B700
00F200
04E000
09A000
6C2000
ENDCHAR
STARTCHAR asciitilde
ENCODING 126
SWIDTH 624 0
DWIDTH 7 0
BBX 7 3 0 3
BITMAP
04B80060
191E4550
3304C700
ENDCHAR
STARTCHAR nonbreakingspace
ENCODING 160
SWIDTH 293 0
DWIDTH 3 0
BBX 1 1 0 0
BITMAP
00
ENDCHAR
STARTCHAR exclamdown
ENCODING 161
SWIDTH 417 0
DWIDTH 5 0
BBX 5 10 0 -3
BITMAP
004B10
006E20
003000
02B000
087000
1E3000
6E0000
9B0000
980000
230000
ENDCHAR
STARTCHAR cent
ENCODING 162
SWIDTH 487 0
DWIDTH 5 0
BBX 6 9 0 0
BITMAP
0000B2
0004B0
00ACC1
08C0D3
0E53C0
2F1000
1F3250
08DA20
055000
ENDCHAR
STARTCHAR sterling
ENCODING 163
SWIDTH 665 0
DWIDTH 7 0
BBX 9 9 -1 0
BITMAP
000004CC20
00002E3760
0000AA2E30
0001F49700
004CEB2000
000C700000
08CF200000
397FA01700
1CD7ACC300
ENDCHAR
STARTCHAR currency
ENCODING 164
SWIDTH 572 0
DWIDTH 6 0
BBX 7 8 0 0
BITMAP
00520110
009CBD30
01E48800
08B09900
0C60D600
0B67C000
1CBA9000
33007000
ENDCHAR
STARTCHAR yen
ENCODING 165
SWIDTH 583 0
DWIDTH 6 0
BBX 8 9 0 0
BITMAP
3D7000AA
04E109C1
00B55E20
0067D400
003EA000
06DFE300
004D1000
0AEEA000
00A40000
ENDCHAR
STARTCHAR brokenbar
ENCODING 166
SWIDTH 292 0
DWIDTH 3 0
BBX 2 13 1 -2
BITMAP
92
C3
C3
C3
C3
A1
00
92
C3
C3
C3
C3
A1
ENDCHAR
STARTCHAR section
ENCODING 167
SWIDTH 583 0
DWIDTH 6 0
BBX 7 13 0 -3
BITMAP
0005BA10
003E2680
006C0A90
005F4C20
007F6000
0899D000
0E42F300
0D70C600
08E3D200
01EB2000
518A0000
E3780000
6C910000
ENDCHAR
STARTCHAR dieresis
ENCODING 168
SWIDTH 412 0
DWIDTH 5 0
BBX 5 2 0 7
BITMAP
6E1D70
370720
ENDCHAR
STARTCHAR copyright
ENCODING 169
SWIDTH 871 0
DWIDTH 10 0
BBX 10 9 0 0
BITMAP
0006BBC700
00996C9970
05A4D1C1D0
0C2C66C0C2
1D0F1420D1
2C0F2322D0
0E16CA1960
07A0018A00
007CBB6000
ENDCHAR
STARTCHAR ordfeminine
ENCODING 170
SWIDTH 564 0
DWIDTH 6 0
BBX 6 6 1 3
BITMAP
02A9B1
1D58C0
7B0A70
B62F20
B59E00
5C4B70
ENDCHAR
STARTCHAR guillemotleft
ENCODING 171
SWIDTH 662 0
DWIDTH 7 0
BBX 7 5 0 1
BITMAP
003A0580
08C3A900
2E35D100
04D28B00
00430610
ENDCHAR
STARTCHAR logicalnot
ENCODING 172
SWIDTH 729 0
DWIDTH 8 0
BBX 7 4 0 1
BITMAP
1BBBBBC0
000000E0
000000E0
000000A0
ENDCHAR
STARTCHAR uni00AD
ENCODING 173
SWIDTH 833 0
DWIDTH 9 0
BBX 1 1 0 0
BITMAP
00
ENDCHAR
STARTCHAR registered
ENCODING 174
SWIDTH 742 0
DWIDTH 8 0
BBX 7 8 1 1
BITMAP
019BB700
0B674860
7696D2B0
C087C0B0
C0CC21A0
C3868850
78007A00
07BB7000
ENDCHAR
STARTCHAR macron
ENCODING 175
SWIDTH 392 0
DWIDTH 4 0
BBX 5 1 0 7
BITMAP
1BBB50
ENDCHAR
STARTCHAR degree
ENCODING 176
SWIDTH 405 0
DWIDTH 4 0
BBX 4 4 1 5
BITMAP
1BC6
974B
B5A7
4B70
ENDCHAR
STARTCHAR plusminus
ENCODING 177
SWIDTH 617 0
DWIDTH 7 0
BBX 7 8 0 0
BITMAP
00090000
000C0000
000C0000
1BBEBB10
000C0000
000A0000
00000000
1BBBBB10
ENDCHAR
STARTCHAR twosuperior
ENCODING 178
SWIDTH 458 0
DWIDTH 5 0
BBX 6 6 0 3
BITMAP
008CB0
02E0D3
0196D0
006D30
08B110
1C8B40
ENDCHAR
STARTCHAR threesuperior
ENCODING 179
SWIDTH 430 0
DWIDTH 5 0
BBX 6 7 0 2
BITMAP
006CB0
00E0E2
0085E1
007E20
041D40
1D1E20
089400
ENDCHAR
STARTCHAR acute
ENCODING 180
SWIDTH 322 0
DWIDTH 4 0
BBX 3 3 1 6
BITMAP
0520
1E40
9500
ENDCHAR
STARTCHAR mu
ENCODING 181
SWIDTH 618 0
DWIDTH 7 0
BBX 8 9 -1 -3
BITMAP
000C30A6
007D03F1
00D60BA0
04F15F40
09D39F30
0DEB1BB0
2E000000
4B000000
49000000
ENDCHAR
STARTCHAR paragraph
ENCODING 182
SWIDTH 739 0
DWIDTH 8 0
BBX 10 11 0 -1
BITMAP
00006ACDC2
002CFF2C50
00AFFB1F20
00DFF74D00
009FF47900
0009F1B500
0008C0E100
000B74B000
4D2F286000
A8890D1000
4C90360000
ENDCHAR
STARTCHAR periodcentered
ENCODING 183
SWIDTH 353 0
DWIDTH 4 0
BBX 2 2 1 3
BITMAP
8E
47
ENDCHAR
STARTCHAR cedilla
ENCODING 184
SWIDTH 301 0
DWIDTH 3 0
BBX 3 3 0 -3
BITMAP
0640
0680
1E40
ENDCHAR
STARTCHAR onesuperior
ENCODING 185
SWIDTH 403 0
DWIDTH 4 0
BBX 4 6 1 3
BITMAP
02D4
5CF4
03E0
0980
1D10
7600
ENDCHAR
STARTCHAR ordmasculine
ENCODING 186
SWIDTH 498 0
DWIDTH 5 0
BBX 5 6 1 3
BITMAP
03BB10
1E3A70
8A0A70
C51E30
B48B00
4CA100
ENDCHAR
STARTCHAR guillemotright
ENCODING 187
SWIDTH 665 0
DWIDTH 7 0
BBX 7 5 0 1
BITMAP
0970C400
01D63E30
00AB1C70
1B73B400
22031000
ENDCHAR
STARTCHAR onequarter
ENCODING 188
SWIDTH 988 0
DWIDTH 11 0
BBX 9 10 1 0
BITMAP
0000005000
04E2069000
7DF11D1000
07A0885100
0C41D1E300
4C0974D290
922D0C57A0
00A50ACEB0
03C0003C00
0940008300
ENDCHAR
STARTCHAR onehalf
ENCODING 189
SWIDTH 988 0
DWIDTH 11 0
BBX 10 10 1 0
BITMAP
000002B000
04D20A6000
5EF13D0000
37B0A50000
0B43C1ACB0
3C0B52D0D2
923C0005E0
00B4005E40
03C007C200
09301FCB40
ENDCHAR
STARTCHAR threequarters
ENCODING 190
SWIDTH 1007 0
DWIDTH 11 0
BBX 11 10 0 0
BITMAP
000000023000
01BD600D2000
0685B0790000
016C41D33000
019A0886A000
776C1D1B5A10
3A92974B1E00
0002D03BDC10
000A5000C200
002B00037000
ENDCHAR
STARTCHAR questiondown
ENCODING 191
SWIDTH 516 0
DWIDTH 6 0
BBX 5 9 0 -2
BITMAP
0006D0
0006B0
000510
002E10
04E600
5E5000
D55B00
E18A00
5CA200
ENDCHAR
STARTCHAR Agrave
ENCODING 192
SWIDTH 615 0
DWIDTH 7 0
BBX 9 12 -1 0
BITMAP
0000005000
000001E300
0000002500
000002AE10
00002B6C00
0001B2B700
000862F200
005FCEFA00
01D52B8000
03C00D5000
0C500F3000
A9000BB200
ENDCHAR
STARTCHAR Aacute
ENCODING 193
SWIDTH 615 0
DWIDTH 7 0
BBX 9 12 -1 0
BITMAP
0000000140
0000000A90
0000002500
000002AE10
00002B6C00
0001B2B700
000862F200
005FCEFA00
01D52B8000
03C00D5000
0C500F3000
A9000BB200
ENDCHAR
STARTCHAR Acircumflex
ENCODING 194
SWIDTH 615 0
DWIDTH 7 0
BBX 9 12 -1 0
BITMAP
0000000610
000002AD60
0000043250
000002AE10
00002B6C00
0001B2B700
000862F200
005FCEFA00
01D52B8000
03C00D5000
0C500F3000
A9000BB200
ENDCHAR
STARTCHAR Atilde
ENCODING 195
SWIDTH 615 0
DWIDTH 7 0
BBX 10 11 -1 0
BITMAP
000006AB91
0000000000
000002AE10
00002B6C00
0001B2B700
000862F200
005FCEFA00
01D52B8000
03C00D5000
0C500F3000
A9000BB200
ENDCHAR
STARTCHAR Adieresis
ENCODING 196
SWIDTH 615 0
DWIDTH 7 0
BBX 10 12 -1 0
BITMAP
0000045171
00000BA4F2
0000000010
000002AE10
00002B6C00
0001B2B700
000862F200
005FCEFA00
01D52B8000
03C00D4000
0C500F4100
A9000BD100
ENDCHAR
STARTCHAR Aring
ENCODING 197
SWIDTH 615 0
DWIDTH 7 0
BBX 9 12 -1 0
BITMAP
0000005C50
000001D3B0
000002C690
000002FF20
00003D9C00
0001D3A700
000A61F200
019EADE700
00D30B7000
04B00D4000
1D400F3000
A9000AB200
ENDCHAR
STARTCHAR AE
ENCODING 198
SWIDTH 878 0
DWIDTH 10 0
BBX 12 9 -1 0
BITMAP
000003BDCDB2
00003C4F8077
0001D38B06E2
000A80980530
008EABDEA100
00E301E90000
06B006D00400
1D4006E5AB00
990001BFB200
ENDCHAR
STARTCHAR Ccedilla
ENCODING 199
SWIDTH 533 0
DWIDTH 6 0
BBX 7 12 0 -3
BITMAP
0006CC40
007C14A0
04E20B80
0B807E20
2F300100
5E000000
6D000000
4F107000
0ADC7000
00B00000
07C00000
05300000
ENDCHAR
STARTCHAR Egrave
ENCODING 200
SWIDTH 509 0
DWIDTH 6 0
BBX 7 12 0 0
BITMAP
00014000
0004E100
00004300
002BCB20
02E80860
08B07E20
0B705300
05C81000
09D60000
5E200000
8B04A000
2CCB3000
ENDCHAR
STARTCHAR Eacute
ENCODING 201
SWIDTH 509 0
DWIDTH 6 0
BBX 7 12 0 0
BITMAP
00000320
00001C50
00003400
002BCB20
02E80860
08B07E20
0B705300
05C81000
09D60000
5E200000
8B04A000
2CCB3000
ENDCHAR
STARTCHAR Ecircumflex
ENCODING 202
SWIDTH 509 0
DWIDTH 6 0
BBX 7 12 0 0
BITMAP
00001500
0003BE30
00062340
002BCB20
02E80860
08B07E20
0B705300
05C81000
09D60000
5E200000
8B04A000
2CCB3000
ENDCHAR
STARTCHAR Edieresis
ENCODING 203
SWIDTH 509 0
DWIDTH 6 0
BBX 7 12 0 0
BITMAP
00063260
000E77E0
00010000
002BCB20
02E80860
08B07E20
0B705300
05C81000
09D60000
5E200000
8B04A000
2CCB3000
ENDCHAR
STARTCHAR Igrave
ENCODING 204
SWIDTH 327 0
DWIDTH 4 0
BBX 5 12 -1 0
BITMAP
000410
000B80
000160
009D80
0017C0
000990
000D60
002F10
007C00
00D600
05D000
1C3000
ENDCHAR
STARTCHAR Iacute
ENCODING 205
SWIDTH 327 0
DWIDTH 4 0
BBX 6 12 -1 0
BITMAP
000005
00005D
000061
009D80
0017C0
000990
000D60
002F10
007C00
00D600
05D000
1C3000
ENDCHAR
STARTCHAR Icircumflex
ENCODING 206
SWIDTH 327 0
DWIDTH 4 0
BBX 7 12 -1 0
BITMAP
00004200
0017CB00
00250610
009D8000
0017C000
00099000
000D6000
002F1000
007C0000
00D60000
05D00000
1C300000
ENDCHAR
STARTCHAR Idieresis
ENCODING 207
SWIDTH 327 0
DWIDTH 4 0
BBX 7 12 -1 0
BITMAP
00260630
006E1E70
00000100
009D8000
0017C000
00099000
000D6000
002F1000
007C0000
00D60000
05D00000
1C300000
ENDCHAR
STARTCHAR Eth
ENCODING 208
SWIDTH 630 0
DWIDTH 7 0
BBX 7 9 0 0
BITMAP
09DCB810
046408A0
01E502E0
7EFE53F0
1D7207C0
2F201E60
6D00AB00
8A1AC100
3CC70000
ENDCHAR
STARTCHAR Ntilde
ENCODING 209
SWIDTH 708 0
DWIDTH 8 0
BBX 9 11 0 0
BITMAP
000029BA50
0000000000
000AA02E40
008E900D70
01C9800D40
0869902E00
0D18A08700
3C06D0C100
8803F77000
B500DE1000
A2005B0000
ENDCHAR
STARTCHAR Ograve
ENCODING 210
SWIDTH 655 0
DWIDTH 7 0
BBX 8 12 0 0
BITMAP
00001400
00004E10
00000430
0005CC90
006E20D3
02F400C5
0AB000E4
1E4004F1
3E000AA0
4C003F20
2D02D600
07CC5000
ENDCHAR
STARTCHAR Oacute
ENCODING 211
SWIDTH 655 0
DWIDTH 7 0
BBX 8 12 0 0
BITMAP
00000032
000001C5
00000340
0005CC90
006E20D3
02F400C5
0AB000E4
1E4004F1
3E000AA0
4C003F20
2D02D600
07CC5000
ENDCHAR
STARTCHAR Ocircumflex
ENCODING 212
SWIDTH 655 0
DWIDTH 7 0
BBX 8 12 0 0
BITMAP
00000160
00003BE3
00006234
0005CC90
006E20D3
02F400C5
0AB000E4
1E4004F1
3E000AA0
4C003F20
2D02D600
07CC5000
ENDCHAR
STARTCHAR Otilde
ENCODING 213
SWIDTH 655 0
DWIDTH 7 0
BBX 8 11 0 0
BITMAP
00008BB8
00000000
0005CC90
006E20D3
02F400C5
0AB000E4
1E4004F1
3E000AA0
4C003F20
2D02D600
07CC5000
ENDCHAR
STARTCHAR Odieresis
ENCODING 214
SWIDTH 655 0
DWIDTH 7 0
BBX 8 12 0 0
BITMAP
00006326
0000E77E
00001000
0005CC90
006E20D3
02F400C5
0AB000E4
1E4004F1
3E000AA0
4C003F20
2D02D600
07CC5000
ENDCHAR
STARTCHAR multiply
ENCODING 215
SWIDTH 573 0
DWIDTH 6 0
BBX 5 5 1 2
BITMAP
A40680
2C5C10
06F200
2C7A00
A30850
ENDCHAR
STARTCHAR Oslash
ENCODING 216
SWIDTH 655 0
DWIDTH 7 0
BBX 7 11 1 -1
BITMAP
000006B0
002BDF40
02E68D80
0C92B7B0
5E192990
AA280D60
D5915E10
F670D700
DC1AB000
8DC80000
A0000000
ENDCHAR
STARTCHAR Ugrave
ENCODING 217
SWIDTH 624 0
DWIDTH 7 0
BBX 8 12 0 0
BITMAP
00005000
0000D600
00001600
00C90087
00A901E4
01E407D0
06D00E80
0C706F40
3F11DE00
8A07AB00
B7378800
7D706D50
ENDCHAR
STARTCHAR Uacute
ENCODING 218
SWIDTH 624 0
DWIDTH 7 0
BBX 8 12 0 0
BITMAP
00000150
000007B0
00001610
00C90087
00A901E4
01E407D0
06D00E80
0C706F40
3F11DE00
8A07AB00
B7378800
7D706D50
ENDCHAR
STARTCHAR Ucircumflex
ENCODING 219
SWIDTH 624 0
DWIDTH 7 0
BBX 8 12 0 0
BITMAP
00000510
00019D90
00034160
00C90087
00A901E4
01E407D0
06D00E80
0C706F40
3F11DE00
8A07AB00
B7378800
7D706D50
ENDCHAR
STARTCHAR Udieresis
ENCODING 220
SWIDTH 624 0
DWIDTH 7 0
BBX 8 12 0 0
BITMAP
00036062
0008C1F5
00000010
00C90087
00A901E4
01E407D0
06D00E80
0C706F40
3F11DE00
8A07AB00
B7378800
7D706D50
ENDCHAR
STARTCHAR Yacute
ENCODING 221
SWIDTH 580 0
DWIDTH 6 0
BBX 8 15 0 -3
BITMAP
00000140
000009A0
00001600
00C80087
00B801E3
01F307C0
07C01E70
0D607F20
4E11DC00
9A08C700
C647D100
8C679000
002D1000
01C40000
3B500000
ENDCHAR
STARTCHAR Thorn
ENCODING 222
SWIDTH 527 0
DWIDTH 6 0
BBX 7 9 -1 0
BITMAP
01DE4000
001D5000
001FC920
004E05C0
008A06D0
00D55E60
04ECA400
0B700000
5A000000
ENDCHAR
STARTCHAR germandbls
ENCODING 223
SWIDTH 520 0
DWIDTH 6 0
BBX 7 12 -1 -2
BITMAP
0001AB50
000A82D0
002E14C0
007A0C60
00B68800
00F3E200
03E0D600
07B06E10
0B7A0C40
0E3AC900
5D000000
33000000
ENDCHAR
STARTCHAR agrave
ENCODING 224
SWIDTH 541 0
DWIDTH 6 0
BBX 6 9 0 0
BITMAP
000B40
000A50
000140
009CAC
0A90D8
4E12F2
8A09B0
993D90
4D96E5
ENDCHAR
STARTCHAR aacute
ENCODING 225
SWIDTH 541 0
DWIDTH 6 0
BBX 6 10 0 0
BITMAP
000010
0000C4
0005C1
000500
009CAC
0A90D8
4E12F2
8A09B0
993D90
4D96E5
ENDCHAR
STARTCHAR acircumflex
ENCODING 226
SWIDTH 541 0
DWIDTH 6 0
BBX 6 9 0 0
BITMAP
000084
002A99
006216
009CAC
0A90D8
4E12F2
8A09B0
993D90
4D96E5
ENDCHAR
STARTCHAR atilde
ENCODING 227
SWIDTH 541 0
DWIDTH 6 0
BBX 7 9 0 0
BITMAP
004C7440
0061B800
00000000
009CAC00
0A90D800
4E12F200
8A09B000
993D9000
4D96E500
ENDCHAR
STARTCHAR adieresis
ENCODING 228
SWIDTH 541 0
DWIDTH 6 0
BBX 7 9 0 0
BITMAP
00AA3E30
00541810
00000000
009CAC00
0A90D800
4E12F200
8A09B000
993D9000
4D96E500
ENDCHAR
STARTCHAR aring
ENCODING 229
SWIDTH 541 0
DWIDTH 6 0
BBX 6 9 0 0
BITMAP
0009C7
003C5A
001BB2
009CAC
0A90D8
4E12F2
8A09B0
993D90
4D96E5
ENDCHAR
STARTCHAR ae
ENCODING 230
SWIDTH 769 0
DWIDTH 8 0
BBX 9 6 0 0
BITMAP
009CADCC10
0A90DB0F40
4E12F38E10
8A09FBB300
993CE01400
4D91ACB400
ENDCHAR
STARTCHAR ccedilla
ENCODING 231
SWIDTH 465 0
DWIDTH 5 0
BBX 5 9 0 -3
BITMAP
01ACA0
0C91F0
5E17A0
9A0000
9A0410
2CB900
048000
1B7000
061000
ENDCHAR
STARTCHAR egrave
ENCODING 232
SWIDTH 471 0
DWIDTH 5 0
BBX 5 9 0 0
BITMAP
003D00
002E00
000410
009C90
0A92F0
3F2AB0
7EB810
7B0230
1CBB20
ENDCHAR
STARTCHAR eacute
ENCODING 233
SWIDTH 471 0
DWIDTH 5 0
BBX 5 10 0 0
BITMAP
000010
0003D0
000B70
002300
009C90
0A92F0
3F2AB0
7EB810
7B0230
1CBB20
ENDCHAR
STARTCHAR ecircumflex
ENCODING 234
SWIDTH 471 0
DWIDTH 5 0
BBX 6 9 0 0
BITMAP
0002A0
006AD3
025043
009C90
0A92F0
3F2AB0
7EB810
7B0230
1CBB20
ENDCHAR
STARTCHAR edieresis
ENCODING 235
SWIDTH 471 0
DWIDTH 5 0
BBX 6 9 0 0
BITMAP
02E49B
008155
000000
009C90
0A92F0
3F29B0
7EB910
7B0230
1CBB20
ENDCHAR
STARTCHAR igrave
ENCODING 236
SWIDTH 286 0
DWIDTH 3 0
BBX 3 9 0 0
BITMAP
05B0
04C0
0050
0AA0
0980
0D20
5B00
9800
7E20
ENDCHAR
STARTCHAR iacute
ENCODING 237
SWIDTH 286 0
DWIDTH 3 0
BBX 4 9 0 0
BITMAP
005B
01C5
0330
0AA0
0980
0D20
5B00
9800
7E20
ENDCHAR
STARTCHAR icircumflex
ENCODING 238
SWIDTH 286 0
DWIDTH 3 0
BBX 5 9 0 0
BITMAP
004900
079E10
350520
0AA000
098000
0D2000
5B0000
980000
7E2000
ENDCHAR
STARTCHAR idieresis
ENCODING 239
SWIDTH 286 0
DWIDTH 3 0
BBX 5 9 0 0
BITMAP
4E2B90
180640
000000
0AA000
098000
0D2000
5B0000
980000
7E2000
ENDCHAR
STARTCHAR eth
ENCODING 240
SWIDTH 524 0
DWIDTH 6 0
BBX 7 10 0 0
BITMAP
00009100
00006950
0003DD50
00043C00
009CBB00
0A90C900
3E11E400
8B06D000
8A1D4000
3DB50000
ENDCHAR
STARTCHAR ntilde
ENCODING 241
SWIDTH 561 0
DWIDTH 6 0
BBX 7 9 0 0
BITMAP
004C7440
0061B800
00000000
0A95C800
09B79A00
0DA1E600
3E25E100
9808A000
C205D400
ENDCHAR
STARTCHAR ograve
ENCODING 242
SWIDTH 514 0
DWIDTH 6 0
BBX 6 9 0 0
BITMAP
000A60
000970
000150
01ACB0
0BA0E3
4E11F3
8B06E0
891D60
2CC700
ENDCHAR
STARTCHAR oacute
ENCODING 243
SWIDTH 514 0
DWIDTH 6 0
BBX 6 10 0 0
BITMAP
000010
0000A6
0004D1
000510
01ACB0
0BA0E3
4E11F3
8B06E0
891D60
2CC700
ENDCHAR
STARTCHAR ocircumflex
ENCODING 244
SWIDTH 514 0
DWIDTH 6 0
BBX 6 9 0 0
BITMAP
000075
002A9A
005206
01ACB0
0BA0E3
4E11F3
8B06E0
891D60
2CC700
ENDCHAR
STARTCHAR otilde
ENCODING 245
SWIDTH 514 0
DWIDTH 6 0
BBX 7 9 0 0
BITMAP
003C8250
0060B800
00000000
01ACB000
0BA0E300
4E11F300
8B06E000
891D6000
2CC70000
ENDCHAR
STARTCHAR odieresis
ENCODING 246
SWIDTH 514 0
DWIDTH 6 0
BBX 7 9 0 0
BITMAP
008C2E40
00450810
00000000
01ACB000
0BA0E300
4E11F300
8B06E000
891D6000
2CC70000
ENDCHAR
STARTCHAR divide
ENCODING 247
SWIDTH 617 0
DWIDTH 7 0
BBX 7 7 0 1
BITMAP
00082000
000B3000
00000000
1BBBBB20
00000000
003F2000
00040000
ENDCHAR
STARTCHAR oslash
ENCODING 248
SWIDTH 514 0
DWIDTH 6 0
BBX 6 8 0 -1
BITMAP
000079
01ACF1
0B98E3
4E46F3
8A95E0
8D5D60
3FC700
560000
ENDCHAR
STARTCHAR ugrave
ENCODING 249
SWIDTH 553 0
DWIDTH 6 0
BBX 6 9 0 0
BITMAP
000690
0005A0
000050
09A03D
0990B9
0E44F2
5D1BC0
A89991
8D45E4
ENDCHAR
STARTCHAR uacute
ENCODING 250
SWIDTH 553 0
DWIDTH 6 0
BBX 6 9 0 0
BITMAP
000079
0002D4
000420
09A03D
09A0A9
0E53F3
5E1BD0
A97990
8C46D4
ENDCHAR
STARTCHAR ucircumflex
ENCODING 251
SWIDTH 553 0
DWIDTH 6 0
BBX 7 9 0 0
BITMAP
00005800
00188E00
00340510
09A03D00
09A0A900
0E53F300
5E1BD000
A9799000
8C46D400
ENDCHAR
STARTCHAR udieresis
ENCODING 252
SWIDTH 553 0
DWIDTH 6 0
BBX 7 9 0 0
BITMAP
005E1D80
00270730
00000000
09A03D00
09A0A900
0E53F300
5E1BD000
A9799000
8C46D400
ENDCHAR
STARTCHAR yacute
ENCODING 253
SWIDTH 549 0
DWIDTH 6 0
BBX 6 13 0 -3
BITMAP
000010
0000B5
0005C1
000510
08B02D
08B09B
0D62F6
4E1AF2
9A59B0
7C5A60
002D00
01C400
2B5000
ENDCHAR
STARTCHAR thorn
ENCODING 254
SWIDTH 552 0
DWIDTH 6 0
BBX 7 13 -1 -3
BITMAP
00059000
00089000
000C5000
001F1000
006CAD40
00AE2990
00E60A90
04E01E40
08C09B00
0DBC9100
3E100000
99000000
C3000000
ENDCHAR
STARTCHAR ydieresis
ENCODING 255
SWIDTH 549 0
DWIDTH 6 0
BBX 7 12 0 -3
BITMAP
009C3E40
00451810
00000000
08B02D00
08B09B00
0D62F600
4E1AF200
9A59B000
7C5A6000
002D0000
01C40000
2B500000
ENDCHAR
STARTCHAR Amacron
ENCODING 256
SWIDTH 615 0
DWIDTH 7 0
BBX 9 11 -1 0
BITMAP
000006BBA0
0000000000
000002AE10
00002B6C00
0001B2B700
000862F200
005FCEFA00
01D52B8000
03C00D5000
0C500F3000
A9000BB200
ENDCHAR
STARTCHAR amacron
ENCODING 257
SWIDTH 543 0
DWIDTH 6 0
BBX 6 8 0 0
BITMAP
007BBA
000000
009CAC
0A90D8
3E12F2
8A08B0
993D90
3D95E6
ENDCHAR
STARTCHAR Abreve
ENCODING 258
SWIDTH 615 0
DWIDTH 7 0
BBX 10 12 -1 0
BITMAP
0000015041
000001BB70
0000000000
000002AE10
00002B6C00
0001B2B700
000862F200
005FCEFA00
01D52B8000
03C00D4000
0C500F4100
A9000BD100
ENDCHAR
STARTCHAR abreve
ENCODING 259
SWIDTH 543 0
DWIDTH 6 0
BBX 7 9 0 0
BITMAP
002B0810
001BB400
00000000
009CAC00
0A90D800
3E12F200
8A08B000
993D9000
3D95E600
ENDCHAR
STARTCHAR Aogonek
ENCODING 260
SWIDTH 615 0
DWIDTH 7 0
BBX 9 12 -1 -3
BITMAP
000002AE10
00002B6C00
0001C2B700
000862F200
006FCEFA00
01D52B8000
03C00D4000
0C500F4100
A9000BD200
00001B1000
0000880000
00007B1000
ENDCHAR
STARTCHAR aogonek
ENCODING 261
SWIDTH 541 0
DWIDTH 6 0
BBX 6 9 0 -3
BITMAP
009CAC
0A90D8
4E12F2
8A09B0
993D90
4D95F6
000680
001E10
001C60
ENDCHAR
STARTCHAR Cacute
ENCODING 262
SWIDTH 533 0
DWIDTH 6 0
BBX 8 12 0 0
BITMAP
00000041
000001D4
00000430
0006CC30
008C1590
04E21C80
0C808D10
2F201100
5E000000
7D000000
4E107000
09CC7000
ENDCHAR
STARTCHAR cacute
ENCODING 263
SWIDTH 468 0
DWIDTH 5 0
BBX 6 10 0 0
BITMAP
000001
00004D
0000C6
000330
01ACA0
0B91F0
4E17A0
8B0000
8A0420
2CB900
ENDCHAR
STARTCHAR Ccircumflex
ENCODING 264
SWIDTH 533 0
DWIDTH 6 0
BBX 8 12 0 0
BITMAP
00000150
00004CE2
00006143
0006CC30
008C1590
04E21C80
0C808D10
2F201100
5E000000
7D000000
4E107000
09CC7000
ENDCHAR
STARTCHAR ccircumflex
ENCODING 265
SWIDTH 468 0
DWIDTH 5 0
BBX 6 9 0 0
BITMAP
000084
002A99
006216
01ACA0
0B91F0
4E17A0
8B0000
8A0420
2CB900
ENDCHAR
STARTCHAR Cdotaccent
ENCODING 266
SWIDTH 533 0
DWIDTH 6 0
BBX 7 12 0 0
BITMAP
00001710
00003F30
00000100
0006CC30
008C1590
04E21C80
0C808D10
2F201100
5E000000
7D000000
4E107000
09CC7000
ENDCHAR
STARTCHAR cdotaccent
ENCODING 267
SWIDTH 468 0
DWIDTH 5 0
BBX 5 9 0 0
BITMAP
0006E0
000370
000000
01ACA0
0B91F0
4E17A0
8B0000
8A0420
2CB900
ENDCHAR
STARTCHAR Ccaron
ENCODING 268
SWIDTH 533 0
DWIDTH 6 0
BBX 8 12 0 0
BITMAP
00005204
00006DB7
00000510
0006CC30
008C1590
04E21C80
0C808D10
2F201100
5E000000
7D000000
4E107000
09CC7000
ENDCHAR
STARTCHAR ccaron
ENCODING 269
SWIDTH 468 0
DWIDTH 5 0
BBX 7 9 0 0
BITMAP
000B1570
000AC910
00021000
01ACA000
0B91F000
4E17A000
8B000000
8A042000
2CB90000
ENDCHAR
STARTCHAR Dcaron
ENCODING 270
SWIDTH 630 0
DWIDTH 7 0
BBX 8 12 0 0
BITMAP
00025032
0001DAB2
00003300
07DCB910
055207B0
00C901F1
04F202F1
0AA006D0
0E400D70
4E009C00
7B19C100
3CC80000
ENDCHAR
STARTCHAR dcaron
ENCODING 271
SWIDTH 557 0
DWIDTH 6 0
BBX 9 10 0 0
BITMAP
000001D3D0
000006B3C0
00000B6720
00001F2000
008CBD0000
08A0B80000
2F20E40000
7C06F10000
8A1DC00000
3DA4D70000
ENDCHAR
STARTCHAR Dcroat
ENCODING 272
SWIDTH 630 0
DWIDTH 7 0
BBX 7 9 0 0
BITMAP
07CCB810
085008A0
00C902E0
04F203F0
8FFF47C0
1F401E60
5D00AB00
8A1AC100
4DC70000
ENDCHAR
STARTCHAR dcroat
ENCODING 273
SWIDTH 557 0
DWIDTH 6 0
BBX 8 10 0 0
BITMAP
000000D1
000004E0
0003CEE3
00000E40
008CBE00
08A0BA00
2F20E500
7C06F100
8A1DD000
3DA4D700
ENDCHAR
STARTCHAR Emacron
ENCODING 274
SWIDTH 509 0
DWIDTH 6 0
BBX 7 11 0 0
BITMAP
0009BB70
00000000
002BCB20
02E80860
08B07E20
0B705300
05C81000
09D60000
5E200000
8B04A000
2CCB3000
ENDCHAR
STARTCHAR emacron
ENCODING 275
SWIDTH 471 0
DWIDTH 5 0
BBX 6 8 0 0
BITMAP
01BBB5
000000
009C90
0A92F0
3F2AB0
7EB810
7B0230
1CBB20
ENDCHAR
STARTCHAR Ebreve
ENCODING 276
SWIDTH 509 0
DWIDTH 6 0
BBX 7 12 0 0
BITMAP
00024040
0003CB40
00000000
002BCB20
02E80860
08B07E20
0B705300
05C81000
09D60000
5E200000
8B04A000
2CCB3000
ENDCHAR
STARTCHAR ebreve
ENCODING 277
SWIDTH 471 0
DWIDTH 5 0
BBX 6 9 0 0
BITMAP
008527
005C91
000000
009C90
0A92F0
3F2AB0
7EB810
7B0230
1CBB20
ENDCHAR
STARTCHAR Edotaccent
ENCODING 278
SWIDTH 509 0
DWIDTH 6 0
BBX 7 12 0 0
BITMAP
00006200
0002F400
00001000
002BCB20
02E80860
08B07E20
0B705300
05C81000
09D60000
5E200000
8B04A000
2CCB3000
ENDCHAR
STARTCHAR edotaccent
ENCODING 279
SWIDTH 471 0
DWIDTH 5 0
BBX 5 9 0 0
BITMAP
000C80
000630
000000
009C90
0A92F0
3F2AB0
7EB810
7B0230
1CBB20
ENDCHAR
STARTCHAR Eogonek
ENCODING 280
SWIDTH 509 0
DWIDTH 6 0
BBX 7 12 0 -3
BITMAP
002BCB20
02E80860
08B07E20
0B705300
05C81000
09D60000
5E200000
8B04A000
2CCD3000
02B10000
0B500000
09A00000
ENDCHAR
STARTCHAR eogonek
ENCODING 281
SWIDTH 471 0
DWIDTH 5 0
BBX 5 9 0 -3
BITMAP
008CA0
0992F0
3F2AB0
7EB810
7B0230
1CCD20
01B200
097000
07B100
ENDCHAR
STARTCHAR Ecaron
ENCODING 282
SWIDTH 509 0
DWIDTH 6 0
BBX 7 12 0 0
BITMAP
00043040
0004EA90
00005100
002BCB20
02E80860
08B07E20
0B705300
05C81000
09D60000
5E200000
8B04A000
2CCB3000
ENDCHAR
STARTCHAR ecaron
ENCODING 283
SWIDTH 471 0
DWIDTH 5 0
BBX 7 9 0 0
BITMAP
00581A10
001EB500
00030000
009C9000
0A92F000
3F2AB000
7EB81000
7B023000
1CBB2000
ENDCHAR
STARTCHAR Gcircumflex
ENCODING 284
SWIDTH 598 0
DWIDTH 7 0
BBX 8 12 0 0
BITMAP
00000150
00004CE1
00006143
0006CC40
008D24A0
04F21B80
0C907D10
2F300000
5E05FB40
6C00B100
4E129000
09C91000
ENDCHAR
STARTCHAR gcircumflex
ENCODING 285
SWIDTH 526 0
DWIDTH 6 0
BBX 6 12 0 -3
BITMAP
000085
002A9A
005206
009C87
0A90B9
3F11E4
8B06E0
8A2EA0
3DAC50
002D00
01C500
1B5000
ENDCHAR
STARTCHAR Gbreve
ENCODING 286
SWIDTH 598 0
DWIDTH 7 0
BBX 8 12 0 0
BITMAP
00003304
00005CA3
00000000
0006CC40
008D24A0
04F21B80
0C907D10
2F300000
5E05FB40
6C00B100
4E129000
09C91000
ENDCHAR
STARTCHAR gbreve
ENCODING 287
SWIDTH 526 0
DWIDTH 6 0
BBX 7 12 0 -3
BITMAP
001B0810
000AB500
00000000
009C8700
0A90B900
3F11E400
8B06E000
8A2EA000
3DAC5000
002D0000
01C50000
1B500000
ENDCHAR
STARTCHAR Gdotaccent
ENCODING 288
SWIDTH 598 0
DWIDTH 7 0
BBX 7 12 0 0
BITMAP
00001710
00004F20
00000100
0006CC40
008D24A0
04F21B80
0C907D10
2F300000
5E05FB40
6C00B100
4E129000
09C91000
ENDCHAR
STARTCHAR gdotaccent
ENCODING 289
SWIDTH 526 0
DWIDTH 6 0
BBX 6 12 0 -3
BITMAP
0005E1
000270
000000
009C87
0A90B9
3F11E4
8B06E0
8A2EA0
3DAC50
002D00
01C500
1B5000
ENDCHAR
STARTCHAR Gcommaaccent
ENCODING 290
SWIDTH 598 0
DWIDTH 7 0
BBX 7 12 0 -3
BITMAP
0006CC40
008D24A0
04F21B80
0C907D10
2F300000
5E05FB40
6C00B100
4E129000
09C91000
05300000
09800000
1A100000
ENDCHAR
STARTCHAR gcommaaccent
ENCODING 291
SWIDTH 526 0
DWIDTH 6 0
BBX 6 12 0 -3
BITMAP
0000A2
0005D0
000010
009C87
0A90B9
3F11E4
8B06E0
8A2EA0
3DAC50
002D00
01C500
1B5000
ENDCHAR
STARTCHAR Hcircumflex
ENCODING 292
SWIDTH 668 0
DWIDTH 7 0
BBX 9 12 -1 0
BITMAP
0000005100
00001AD700
0000431600
00BD700590
0019900990
000C700D50
001F302F10
00BFBBDE20
00B900C400
02F302E000
09A007A000
3B1006D400
ENDCHAR
STARTCHAR hcircumflex
ENCODING 293
SWIDTH 555 0
DWIDTH 6 0
BBX 6 12 0 0
BITMAP
000210
004D70
0883B0
008600
00C600
00F200
04D5D7
09A6A9
0DA1F4
4E16D0
A80990
D206D4
ENDCHAR
STARTCHAR Hbar
ENCODING 294
SWIDTH 668 0
DWIDTH 7 0
BBX 10 9 -1 0
BITMAP
00BD700690
0019900990
02BECABEC3
001F302E00
00AFABDE20
00B900C500
02F302E000
09A007A000
3B1006D400
ENDCHAR
STARTCHAR hbar
ENCODING 295
SWIDTH 555 0
DWIDTH 6 0
BBX 6 10 0 0
BITMAP
005800
008A00
06EDA0
00D400
03D5D7
07A6A9
0CA1F5
3E16D0
980990
D206D4
ENDCHAR
STARTCHAR Itilde
ENCODING 296
SWIDTH 327 0
DWIDTH 4 0
BBX 7 11 -1 0
BITMAP
003ABA40
00000000
009D8000
0017C000
00099000
000D6000
002F1000
007C0000
00D60000
05D00000
1C300000
ENDCHAR
STARTCHAR itilde
ENCODING 297
SWIDTH 286 0
DWIDTH 3 0
BBX 5 9 0 0
BITMAP
09C170
427B20
000000
0AA000
098000
0D2000
5B0000
980000
7E2000
ENDCHAR
STARTCHAR Imacron
ENCODING 298
SWIDTH 327 0
DWIDTH 4 0
BBX 7 11 -1 0
BITMAP
004BBB20
00000000
009D8000
0017C000
00099000
000D6000
002F1000
007C0000
00D60000
05D00000
1C300000
ENDCHAR
STARTCHAR imacron
ENCODING 299
SWIDTH 286 0
DWIDTH 3 0
BBX 5 8 0 0
BITMAP
3BBB20
000000
0AA000
098000
0D2000
5B0000
980000
7E2000
ENDCHAR
STARTCHAR Ibreve
ENCODING 300
SWIDTH 327 0
DWIDTH 4 0
BBX 7 12 -1 0
BITMAP
00060220
0009C910
00000000
009D8000
0017C000
00099000
000D6000
002F1000
007C0000
00D60000
05D00000
1C300000
ENDCHAR
STARTCHAR ibreve
ENCODING 301
SWIDTH 286 0
DWIDTH 3 0
BBX 5 9 0 0
BITMAP
0A3360
06C800
000000
0AA000
098000
0D2000
5B0000
980000
7E2000
ENDCHAR
STARTCHAR Iogonek
ENCODING 302
SWIDTH 327 0
DWIDTH 4 0
BBX 6 12 -2 -3
BITMAP
0009D8
00017C
000099
0000D6
0002F2
0007C0
000C60
004E10
01D400
084000
5A0000
5B3000
ENDCHAR
STARTCHAR iogonek
ENCODING 303
SWIDTH 297 0
DWIDTH 3 0
BBX 5 12 -1 -3
BITMAP
000C80
000630
000000
008C00
007A00
00C500
02E000
079000
07E400
058000
2E0000
2C5000
ENDCHAR
STARTCHAR Idotaccent
ENCODING 304
SWIDTH 327 0
DWIDTH 4 0
BBX 5 12 -1 0
BITMAP
000350
0009C0
000000
009D80
0017C0
000990
000D60
002F10
007C00
00D600
05D000
1C3000
ENDCHAR
STARTCHAR dotlessi
ENCODING 305
SWIDTH 286 0
DWIDTH 3 0
BBX 3 6 0 0
BITMAP
0AA0
0980
0D20
5B00
9800
7E20
ENDCHAR
STARTCHAR IJ
ENCODING 306
SWIDTH 720 0
DWIDTH 8 0
BBX 10 12 -1 -3
BITMAP
009D82BDD2
0017CA91F3
00099004F1
000D6008C0
002F100D70
007C003F20
00D6009C00
05D001E500
1C3008C000
00002E4000
0001C70000
001C600000
ENDCHAR
STARTCHAR ij
ENCODING 307
SWIDTH 567 0
DWIDTH 6 0
BBX 7 12 0 -3
BITMAP
00D62E40
00720810
00000000
0AA09B00
09808A00
0D20A800
5B00D400
9803E000
7E298000
001E2000
00970000
07800000
ENDCHAR
STARTCHAR Jcircumflex
ENCODING 308
SWIDTH 393 0
DWIDTH 4 0
BBX 8 15 -2 -3
BITMAP
00000060
00002BD5
00005225
0008DD60
004C2A90
00000D60
00002F30
00007D00
0000C800
0003F200
0009B000
002F3000
00A90000
07C10000
8A100000
ENDCHAR
STARTCHAR jcircumflex
ENCODING 309
SWIDTH 282 0
DWIDTH 3 0
BBX 6 13 -2 -3
BITMAP
000012
0002CA
005A2D
000000
000B90
000A90
000C60
001F20
005C00
00B700
02E100
0B5000
870000
ENDCHAR
STARTCHAR Kcommaaccent
ENCODING 310
SWIDTH 616 0
DWIDTH 7 0
BBX 9 12 -1 -3
BITMAP
01DD303D00
001C603F10
000F40AA00
003F17B100
008C890000
00DCD10000
03F2C90000
0B904F4000
5B1007E500
0035000000
005C000000
0093000000
ENDCHAR
STARTCHAR kcommaaccent
ENCODING 311
SWIDTH 497 0
DWIDTH 5 0
BBX 6 13 0 -3
BITMAP
006800
009800
00C500
01F100
04C0C6
0972E5
0D8C50
4EE200
A8AA10
C22DC1
061000
0D4000
290000
ENDCHAR
STARTCHAR kgreenlandic
ENCODING 312
SWIDTH 497 0
DWIDTH 5 0
BBX 6 6 0 0
BITMAP
0A90C7
0981D6
0D8C80
4FF400
AB9900
D31CA1
ENDCHAR
STARTCHAR Lacute
ENCODING 313
SWIDTH 517 0
DWIDTH 6 0
BBX 8 12 -1 0
BITMAP
00000023
000000B7
00000250
00007CA0
0005D1B2
000D72E1
004F3E90
009A1700
00E50000
04D00000
0B646400
2ECAAD10
ENDCHAR
STARTCHAR lacute
ENCODING 314
SWIDTH 279 0
DWIDTH 3 0
BBX 5 12 0 0
BITMAP
000150
0007B0
000610
009400
00D400
02E100
07B000
0C6000
1F1000
6C0000
980000
7C3000
ENDCHAR
STARTCHAR Lcommaaccent
ENCODING 315
SWIDTH 517 0
DWIDTH 6 0
BBX 8 12 -1 -3
BITMAP
00007CA0
0005D1B2
000D72E1
004F3E90
009A1700
00E50000
04D00000
0B646400
2ECAAD10
01600000
02E00000
06500000
ENDCHAR
STARTCHAR lcommaaccent
ENCODING 316
SWIDTH 279 0
DWIDTH 3 0
BBX 4 13 0 -3
BITMAP
0096
00C6
00E3
03E0
0890
0C50
2F10
6B00
9800
6D30
4400
8900
A200
ENDCHAR
STARTCHAR Lcaron
ENCODING 317
SWIDTH 517 0
DWIDTH 6 0
BBX 10 12 -1 0
BITMAP
0000000061
00000000D3
00000002B0
00007CA210
0005D1B200
000D72E100
004F3E9000
009A170000
00E5000000
04D0000000
0B64640000
2ECAAD1000
ENDCHAR
STARTCHAR lcaron
ENCODING 318
SWIDTH 467 0
DWIDTH 5 0
BBX 6 10 0 0
BITMAP
00962E
00C62C
00E363
03E000
089000
0C5000
2F1000
6B0000
980000
6D3000
ENDCHAR
STARTCHAR Ldot
ENCODING 319
SWIDTH 668 0
DWIDTH 7 0
BBX 9 9 -1 0
BITMAP
00007CA000
0005D1B200
000D72E100
004F3E9000
009A171830
00E5001E50
04D0000000
0B64640000
2ECAAD1000
ENDCHAR
STARTCHAR ldot
ENCODING 320
SWIDTH 489 0
DWIDTH 5 0
BBX 6 10 0 0
BITMAP
009600
00C600
00E300
03E000
089000
0C55E3
2F1281
6B0000
980000
6D3000
ENDCHAR
STARTCHAR Lslash
ENCODING 321
SWIDTH 517 0
DWIDTH 6 0
BBX 8 9 -1 0
BITMAP
00007C90
0005E1B2
000D81E1
004F3CB0
009C2B20
09FD7000
07D00000
0B646400
2ECAAD10
ENDCHAR
STARTCHAR lslash
ENCODING 322
SWIDTH 279 0
DWIDTH 3 0
BBX 5 10 0 0
BITMAP
03A000
01DD80
00D400
02F100
07B000
0B6000
1F2000
5C0000
980000
6C3000
ENDCHAR
STARTCHAR Nacute
ENCODING 323
SWIDTH 708 0
DWIDTH 8 0
BBX 9 12 0 0
BITMAP
0000000500
0000003E10
0000005200
000AA02E40
008E900D70
01C9800D40
0869902E00
0D18A08700
3C06D0C100
8803F77000
B500DE1000
A2005B0000
ENDCHAR
STARTCHAR nacute
ENCODING 324
SWIDTH 561 0
DWIDTH 6 0
BBX 6 9 0 0
BITMAP
00006A
0001D4
000420
0A95C8
09B79A
0DA1E6
3E25E1
9808A0
C205D4
ENDCHAR
STARTCHAR Ncommaaccent
ENCODING 325
SWIDTH 708 0
DWIDTH 8 0
BBX 9 12 0 -3
BITMAP
000AA02E40
008E900D70
01C9800D40
0869902E00
0D18A08700
3C06D0C100
8803F77000
B500DE1000
A2005B0000
0015000000
003E000000
0075000000
ENDCHAR
STARTCHAR ncommaaccent
ENCODING 326
SWIDTH 561 0
DWIDTH 6 0
BBX 6 9 0 -3
BITMAP
0A95C8
09B79A
0DA1E6
3E25E1
9808A0
C205D4
052000
0A7000
1A1000
ENDCHAR
STARTCHAR Ncaron
ENCODING 327
SWIDTH 708 0
DWIDTH 8 0
BBX 9 12 0 0
BITMAP
0000061040
000009CB50
0000014000
000AA02E40
008E900D70
01C9800D40
0869902E00
0D18A08700
3C06D0C100
8803F77000
B500DE1000
A2005B0000
ENDCHAR
STARTCHAR ncaron
ENCODING 328
SWIDTH 561 0
DWIDTH 6 0
BBX 7 9 0 0
BITMAP
000B1570
000AC910
00021000
0A95C800
09B79A00
0DA1E600
3E25E100
9808A000
C205D400
ENDCHAR
STARTCHAR Eng
ENCODING 330
SWIDTH 698 0
DWIDTH 8 0
BBX 9 12 0 -3
BITMAP
001B803E30
009E700E60
03CB600E40
095B702F10
1E0A906B00
5A08B0A500
9605F2D000
C300EC6000
B1008C0000
0002D30000
001C500000
02B5000000
ENDCHAR
STARTCHAR eng
ENCODING 331
SWIDTH 561 0
DWIDTH 6 0
BBX 6 9 0 -3
BITMAP
0A95C8
09B77A
0DA0B7
3E21F2
9806C0
D20D60
006D00
01D300
0B5000
ENDCHAR
STARTCHAR Omacron
ENCODING 332
SWIDTH 655 0
DWIDTH 7 0
BBX 8 11 0 0
BITMAP
00009BB7
00000000
0005CC90
006E20D3
02F400C5
0AB000E4
1E4004F1
3E000AA0
4C003F20
2D02D600
07CC5000
ENDCHAR
STARTCHAR omacron
ENCODING 333
SWIDTH 514 0
DWIDTH 6 0
BBX 6 8 0 0
BITMAP
006BBA
000000
01ACB0
0BA0E3
4E11F3
8B06E0
891D60
2CC700
ENDCHAR
STARTCHAR Obreve
ENCODING 334
SWIDTH 655 0
DWIDTH 7 0
BBX 8 12 0 0
BITMAP
00002404
00004CB4
00000000
0005CC90
006E20D3
02F400C5
0AB000E4
1E4004F1
3E000AA0
4C003F20
2D02D600
07CC5000
ENDCHAR
STARTCHAR obreve
ENCODING 335
SWIDTH 514 0
DWIDTH 6 0
BBX 7 9 0 0
BITMAP
001C0810
000AB500
00000000
01ACB000
0BA0E300
4E11F300
8B06E000
891D6000
2CC70000
ENDCHAR
STARTCHAR Ohungarumlaut
ENCODING 336
SWIDTH 655 0
DWIDTH 7 0
BBX 8 12 0 0
BITMAP
00000506
00002C3C
00004241
0005CC90
006E20D3
02F400C5
0AB000E4
1E4004F1
3E000AA0
4C003F20
2D02D600
07CC5000
ENDCHAR
STARTCHAR ohungarumlaut
ENCODING 337
SWIDTH 514 0
DWIDTH 6 0
BBX 7 9 0 0
BITMAP
00086950
003C4B00
00515100
01ACB000
0BA0E300
4E11F300
8B06E000
891D6000
2CC70000
ENDCHAR
STARTCHAR OE
ENCODING 338
SWIDTH 900 0
DWIDTH 10 0
BBX 11 9 1 0
BITMAP
0019CC6CCA10
01D906F50B40
09B00A909D10
2F300D506200
7C0007B80000
B8001BC40000
C5008D100000
A706F9078000
2BCA5DDA1000
ENDCHAR
STARTCHAR oe
ENCODING 339
SWIDTH 777 0
DWIDTH 9 0
BBX 9 6 0 0
BITMAP
007CC4BD40
07C1BF3880
1E40CA2E40
4E02FCB400
4D0BF40500
1BCA7DC700
ENDCHAR
STARTCHAR Racute
ENCODING 340
SWIDTH 623 0
DWIDTH 7 0
BBX 8 13 -1 -1
BITMAP
00000032
000001C6
00000340
003BDBA2
0078406B
000A906C
001F41D7
006E6D90
00BDF400
02F3A900
08A03F30
2C1008E4
00000010
ENDCHAR
STARTCHAR racute
ENCODING 341
SWIDTH 407 0
DWIDTH 4 0
BBX 6 10 0 0
BITMAP
000010
0001E1
000990
001500
0C77C0
0AAB90
0DA000
3F3000
8B0000
A40000
ENDCHAR
STARTCHAR Rcommaaccent
ENCODING 342
SWIDTH 623 0
DWIDTH 7 0
BBX 8 12 -1 -3
BITMAP
003BDBA2
0078406B
000A906C
001F41D7
006E6D90
00BDF400
02F3A900
08A03F30
2C1008E4
00340010
00890000
00A20000
ENDCHAR
STARTCHAR rcommaaccent
ENCODING 343
SWIDTH 407 0
DWIDTH 4 0
BBX 6 9 -1 -3
BITMAP
00C77C
00AAA9
00DA00
03F300
08B000
0B4000
160000
2E0000
660000
ENDCHAR
STARTCHAR Rcaron
ENCODING 344
SWIDTH 623 0
DWIDTH 7 0
BBX 8 13 -1 -1
BITMAP
00004304
00004EA9
00000510
003BDBA2
0078406B
000A906C
001F41D7
006E6D90
00BDF400
02F3A900
08A03F30
2C1008E4
00000010
ENDCHAR
STARTCHAR rcaron
ENCODING 345
SWIDTH 407 0
DWIDTH 4 0
BBX 6 9 0 0
BITMAP
00852A
005CA3
000300
0C77C0
0AAB90
0DA000
3F3000
8B0000
A40000
ENDCHAR
STARTCHAR Sacute
ENCODING 346
SWIDTH 474 0
DWIDTH 5 0
BBX 7 12 0 0
BITMAP
00000320
00001C50
00003400
005CC500
04E10E00
0A904E00
0B80E800
08E13000
01E80000
325E0000
B62D0000
5DB30000
ENDCHAR
STARTCHAR sacute
ENCODING 347
SWIDTH 423 0
DWIDTH 5 0
BBX 6 10 0 0
BITMAP
000010
0001E2
0008A0
001500
04CD40
0D4780
0B9000
04F300
91B600
8CA100
ENDCHAR
STARTCHAR Scircumflex
ENCODING 348
SWIDTH 474 0
DWIDTH 5 0
BBX 7 12 0 0
BITMAP
00001500
0003BE30
00062340
005CC500
04E10E00
0A904E00
0B80E800
08E13000
01E80000
325E0000
B62D0000
5DB30000
ENDCHAR
STARTCHAR scircumflex
ENCODING 349
SWIDTH 423 0
DWIDTH 5 0
BBX 6 9 0 0
BITMAP
0003A0
006AD2
025043
04CD40
0D4780
0B9000
04F300
91B600
8CA100
ENDCHAR
STARTCHAR Scedilla
ENCODING 350
SWIDTH 474 0
DWIDTH 5 0
BBX 6 12 0 -3
BITMAP
005CC5
04E10E
0A903E
0B80E9
08D130
01E800
225E00
A62D00
6EC500
084000
1B5000
391000
ENDCHAR
STARTCHAR scedilla
ENCODING 351
SWIDTH 423 0
DWIDTH 5 0
BBX 5 8 0 -2
BITMAP
04CD40
0D4780
0B9000
04F300
B2B600
5CB100
0C0000
9A0000
ENDCHAR
STARTCHAR Scaron
ENCODING 352
SWIDTH 474 0
DWIDTH 5 0
BBX 7 12 0 0
BITMAP
00043040
0004EA90
00005100
005CC500
04E10E00
0A904E00
0B80E800
08E13000
01E80000
325E0000
B62D0000
5DB30000
ENDCHAR
STARTCHAR scaron
ENCODING 353
SWIDTH 423 0
DWIDTH 5 0
BBX 7 9 0 0
BITMAP
00581A10
002EB400
00030000
04CD4000
0D478000
0B900000
04F30000
91B60000
8CA10000
ENDCHAR
STARTCHAR Tcommaaccent
ENCODING 354
SWIDTH 471 0
DWIDTH 5 0
BBX 7 12 0 -3
BITMAP
1BCCDB90
29098000
000E4000
003F1000
007B0000
00B60000
01E10000
07900000
2C100000
06100000
0D400000
39000000
ENDCHAR
STARTCHAR tcommaaccent
ENCODING 355
SWIDTH 358 0
DWIDTH 4 0
BBX 5 11 0 -3
BITMAP
004200
01E300
1DDA20
0C5000
1F1000
4C0000
6A2300
3EB100
350000
6B0000
930000
ENDCHAR
STARTCHAR Tcaron
ENCODING 356
SWIDTH 471 0
DWIDTH 5 0
BBX 8 12 0 0
BITMAP
00025032
0001EAB1
00004300
1BCCDB90
29098000
000E4000
003F1000
007B0000
00B60000
01E10000
07900000
2C100000
ENDCHAR
STARTCHAR tcaron
ENCODING 357
SWIDTH 497 0
DWIDTH 5 0
BBX 6 10 1 0
BITMAP
000097
000095
015180
09A000
7FB600
5C0000
980000
D40000
E25000
AE5000
ENDCHAR
STARTCHAR Tbar
ENCODING 358
SWIDTH 471 0
DWIDTH 5 0
BBX 7 9 0 0
BITMAP
1BCCDB90
3B098000
000D5000
002F1000
2BDE7000
00B70000
01E20000
07B00000
2C200000
ENDCHAR
STARTCHAR tbar
ENCODING 359
SWIDTH 358 0
DWIDTH 4 0
BBX 5 8 0 0
BITMAP
004200
01E300
1DDA20
0B6000
7FCA00
4C0000
6A2300
3EB100
ENDCHAR
STARTCHAR Utilde
ENCODING 360
SWIDTH 624 0
DWIDTH 7 0
BBX 8 11 0 0
BITMAP
0004AB93
00000000
00C90087
00A901E4
01E407D0
06D00E80
0C706F40
3F11DE00
8A07AB00
B7378800
7D706D50
ENDCHAR
STARTCHAR utilde
ENCODING 361
SWIDTH 553 0
DWIDTH 6 0
BBX 7 9 0 0
BITMAP
001AC170
00518A20
00000000
09A03D00
09A0A900
0E53F300
5E1BD000
A9799000
8C46D400
ENDCHAR
STARTCHAR Umacron
ENCODING 362
SWIDTH 624 0
DWIDTH 7 0
BBX 8 11 0 0
BITMAP
0005BBA1
00000000
00C90087
00A901E4
01E407D0
06D00E80
0C706F40
3F11DE00
8A07AB00
B7378800
7D706D50
ENDCHAR
STARTCHAR umacron
ENCODING 363
SWIDTH 553 0
DWIDTH 6 0
BBX 7 8 0 0
BITMAP
003BBB20
00000000
09A03D00
09A0A900
0E53F300
5E1BD000
A9799000
8C46D400
ENDCHAR
STARTCHAR Ubreve
ENCODING 364
SWIDTH 624 0
DWIDTH 7 0
BBX 8 12 0 0
BITMAP
00006031
0000BB80
00000000
00C90087
00A901E4
01E407D0
06D00E80
0C706F40
3F11DE00
8A07AB00
B7378800
7D706D50
ENDCHAR
STARTCHAR ubreve
ENCODING 365
SWIDTH 553 0
DWIDTH 6 0
BBX 7 9 0 0
BITMAP
000C1550
0008C700
00000000
09A03D00
09A0A900
0E53F300
5E1BD000
A9799000
8C46D400
ENDCHAR
STARTCHAR Uring
ENCODING 366
SWIDTH 624 0
DWIDTH 7 0
BBX 8 12 0 0
BITMAP
00004C70
0000D2E0
0000E4B0
00C97AA7
00A901E4
01E407D0
06D00E80
0C706F40
3F11DE00
8A07AB00
B7388800
7D706D50
ENDCHAR
STARTCHAR uring
ENCODING 367
SWIDTH 553 0
DWIDTH 6 0
BBX 6 9 0 0
BITMAP
0005CB
000D2E
0008C6
09A03D
09A0A9
0E53F3
5E1BD0
A97990
8C46D4
ENDCHAR
STARTCHAR Uhungarumlaut
ENCODING 368
SWIDTH 624 0
DWIDTH 7 0
BBX 8 12 0 0
BITMAP
00003333
0000A4B3
00024240
00C90087
00A901E4
01E407D0
06D00E80
0C706F40
3F11DE00
8A07AB00
B7378800
7D706D50
ENDCHAR
STARTCHAR uhungarumlaut
ENCODING 369
SWIDTH 553 0
DWIDTH 6 0
BBX 7 9 0 0
BITMAP
00049580
001C4C20
00324200
09A03D00
09A0A900
0E53F300
5E1BD000
A9799000
8C46D400
ENDCHAR
STARTCHAR Uogonek
ENCODING 370
SWIDTH 684 0
DWIDTH 8 0
BBX 8 12 0 -3
BITMAP
007D003C
005D00A9
00A902F3
02F309D0
07C02F90
0D509F50
3E13AF10
6C194E00
3E911EB0
00002C10
0000B500
0000AA00
ENDCHAR
STARTCHAR uogonek
ENCODING 371
SWIDTH 553 0
DWIDTH 6 0
BBX 6 9 0 -3
BITMAP
09A03D
09A0A9
0E53F3
5E1BD0
A97990
8C46E5
000690
001E10
001C60
ENDCHAR
STARTCHAR Wcircumflex
ENCODING 372
SWIDTH 941 0
DWIDTH 10 0
BBX 11 12 0 0
BITMAP
000000051000
000002AD7000
000004325000
0BC9000009B0
015E003308E0
00CA05F506E0
04F34FA007B0
09B1DE500B70
0E5A7F102E10
2F4A4D00A700
3DA13D06A000
0C500CB70000
ENDCHAR
STARTCHAR wcircumflex
ENCODING 373
SWIDTH 750 0
DWIDTH 8 0
BBX 9 9 0 0
BITMAP
0000084000
0002A99000
0006216000
0B90444D00
0890D51F10
0C47E01D00
2E2E906700
7AA882B000
7C23EA1000
ENDCHAR
STARTCHAR Ycircumflex
ENCODING 374
SWIDTH 580 0
DWIDTH 6 0
BBX 8 15 0 -3
BITMAP
00000510
00019D80
00044160
00C80087
00B801E3
01F307C0
07C01E70
0D607F20
4E11DC00
9A08C700
C647D100
8C679000
002D1000
01C40000
3B500000
ENDCHAR
STARTCHAR ycircumflex
ENCODING 375
SWIDTH 549 0
DWIDTH 6 0
BBX 6 12 0 -3
BITMAP
000084
002A9A
005216
08B02D
08B09B
0D62F6
4E1AF2
9A59B0
7C5A60
002D00
01C400
2B5000
ENDCHAR
STARTCHAR Ydieresis
ENCODING 376
SWIDTH 580 0
DWIDTH 6 0
BBX 8 15 0 -3
BITMAP
00035171
0009B3F4
00000010
00C80087
00B801E3
01F307C0
07C01E70
0D607F20
4E11DC00
9A08C700
C647D100
8C679000
002D1000
01C40000
3B500000
ENDCHAR
STARTCHAR Zacute
ENCODING 377
SWIDTH 501 0
DWIDTH 6 0
BBX 8 12 -1 0
BITMAP
00000050
000004D1
00000610
005BA8D5
000007F4
00005F70
0002E800
001D8000
00A90000
05A00000
0D9BCA00
1E810810
ENDCHAR
STARTCHAR zacute
ENCODING 378
SWIDTH 430 0
DWIDTH 5 0
BBX 6 10 0 0
BITMAP
000010
0000C4
0006C1
000600
09BAD0
013BA0
01CA00
1C9000
9B4200
CB9C00
ENDCHAR
STARTCHAR Zdotaccent
ENCODING 379
SWIDTH 501 0
DWIDTH 6 0
BBX 8 12 -1 0
BITMAP
00003600
00008D00
00000000
005BA8D5
000007F4
00005F80
0002E900
001D9000
00AA0000
05C00000
0D9CEB00
1EA43A10
ENDCHAR
STARTCHAR zdotaccent
ENCODING 380
SWIDTH 430 0
DWIDTH 5 0
BBX 5 9 0 0
BITMAP
003E30
001810
000000
09BAD0
013BA0
01CA00
1C9000
9B4200
CB9C00
ENDCHAR
STARTCHAR Zcaron
ENCODING 381
SWIDTH 501 0
DWIDTH 6 0
BBX 8 12 -1 0
BITMAP
00006113
0000ABC4
00002400
005BA8D5
000007F4
00005F70
0002E800
001D8000
00A90000
05A00000
0D9BCA00
1E810810
ENDCHAR
STARTCHAR zcaron
ENCODING 382
SWIDTH 430 0
DWIDTH 5 0
BBX 6 9 0 0
BITMAP
00943A
006CA2
001300
09BAD0
013BA0
01CA00
1C9000
9B4200
CB9C00
ENDCHAR
STARTCHAR florin
ENCODING 402
SWIDTH 466 0
DWIDTH 5 0
BBX 9 13 -2 -3
BITMAP
000001AB10
00000B7660
00004D2E30
0000A81400
0009FC7000
0008D00000
0008900000
000B600000
000E300000
003E000000
0089000000
D1D3000000
AD80000000
ENDCHAR
STARTCHAR AEacute
ENCODING 508
SWIDTH 878 0
DWIDTH 10 0
BBX 12 12 -1 0
BITMAP
000000001400
000000008A00
000000016000
000003BDCDB2
00003C4F8077
0001D38B06E2
000A80980530
008EABDEA100
00E301E90000
06B006D00400
1D4006E5AB00
990001BFB200
ENDCHAR
STARTCHAR aeacute
ENCODING 509
SWIDTH 770 0
DWIDTH 8 0
BBX 9 9 0 0
BITMAP
0000097000
00003D2000
0000510000
009CADCC10
0A90DB0F40
3E12F38E10
8A08FBB300
993CE01400
3D91ACB400
ENDCHAR
STARTCHAR Scommaaccent
ENCODING 536
SWIDTH 474 0
DWIDTH 5 0
BBX 6 12 0 -3
BITMAP
005CC5
04E10E
0A904E
0B80E8
08E130
01E800
325E00
B62D00
5DB300
062000
0C5000
290000
ENDCHAR
STARTCHAR scommaaccent
ENCODING 537
SWIDTH 423 0
DWIDTH 5 0
BBX 5 9 0 -3
BITMAP
04CD40
0D4780
0B9000
04F300
91B600
8CA100
260000
3E0000
750000
ENDCHAR
STARTCHAR dotlessj
ENCODING 567
SWIDTH 277 0
DWIDTH 3 0
BBX 5 9 -2 -3
BITMAP
000B80
000A80
000D50
002F10
006B00
00C600
03D000
0B5000
960000
ENDCHAR
STARTCHAR circumflex
ENCODING 710
SWIDTH 354 0
DWIDTH 4 0
BBX 4 3 0 7
BITMAP
0021
04D7
883B
ENDCHAR
STARTCHAR caron
ENCODING 711
SWIDTH 381 0
DWIDTH 4 0
BBX 5 3 0 6
BITMAP
581A10
1EB400
030000
ENDCHAR
STARTCHAR breve
ENCODING 728
SWIDTH 344 0
DWIDTH 4 0
BBX 4 2 0 7
BITMAP
6718
3CA2
ENDCHAR
STARTCHAR dotaccent
ENCODING 729
SWIDTH 217 0
DWIDTH 2 0
BBX 3 2 0 7
BITMAP
2E40
0810
ENDCHAR
STARTCHAR ring
ENCODING 730
SWIDTH 402 0
DWIDTH 4 0
BBX 4 3 1 6
BITMAP
1BD3
87A5
4C90
ENDCHAR
STARTCHAR ogonek
ENCODING 731
SWIDTH 311 0
DWIDTH 3 0
BBX 4 4 0 -3
BITMAP
0061
0A30
6A00
5B30
ENDCHAR
STARTCHAR tilde
ENCODING 732
SWIDTH 397 0
DWIDTH 4 0
BBX 5 2 0 7
BITMAP
09D170
336B30
ENDCHAR
STARTCHAR hungarumlaut
ENCODING 733
SWIDTH 392 0
DWIDTH 4 0
BBX 5 3 0 6
BITMAP
034330
0B5C30
677600
ENDCHAR
STARTCHAR pi
ENCODING 960
SWIDTH 640 0
DWIDTH 7 0
BBX 9 6 -1 0
BITMAP
019DEEFD10
000B17A000
003B0C5000
00A61F1000
06E13E1000
1D501D9000
ENDCHAR
STARTCHAR uni1E02
ENCODING 7682
SWIDTH 551 0
DWIDTH 6 0
BBX 7 12 0 0
BITMAP
00006200
0000E600
00001000
06CCBB10
08830A80
02F40B70
09A2AC10
0EEEC100
3D11E300
6900D400
7806D000
2CBA2000
ENDCHAR
STARTCHAR uni1E03
ENCODING 7683
SWIDTH 525 0
DWIDTH 6 0
BBX 7 10 0 0
BITMAP
00A40000
00E46E10
02F03700
06B00000
0A9BD100
0EA0E500
4F20E400
7A04E100
871C7000
2CC70000
ENDCHAR
STARTCHAR uni1E0A
ENCODING 7690
SWIDTH 630 0
DWIDTH 7 0
BBX 8 12 0 0
BITMAP
00004400
0000C900
00000000
07DCB910
055207B0
00C901F1
04F202F1
0AA006D0
0E400D70
4E009C00
7B19C100
3CC80000
ENDCHAR
STARTCHAR uni1E0B
ENCODING 7691
SWIDTH 557 0
DWIDTH 6 0
BBX 8 10 0 0
BITMAP
000001D1
00C906B0
00630B60
00001F20
008CBD00
08A0B800
2F20E400
7C06F100
8A1DC000
3DA4D700
ENDCHAR
STARTCHAR uni1E1E
ENCODING 7710
SWIDTH 518 0
DWIDTH 6 0
BBX 7 12 0 0
BITMAP
00003500
00009B00
00000000
1CCDEF90
490C4000
003F0000
008C0000
05EDB300
04F20000
08B00000
1E400000
88000000
ENDCHAR
STARTCHAR uni1E1F
ENCODING 7711
SWIDTH 393 0
DWIDTH 4 0
BBX 7 14 -1 -2
BITMAP
00000100
0000BB00
00009D60
0002E3D0
000898B0
000C5220
001F2000
03CFB600
01B80000
00D40000
02F00000
07B00000
0D500000
2B100000
ENDCHAR
STARTCHAR uni1E40
ENCODING 7744
SWIDTH 931 0
DWIDTH 10 0
BBX 13 12 -2 0
BITMAP
00000000045000
000000000AB000
00000000000000
0000007E305E30
0000079E14CE10
00003B7A0C8B00
0000B3C668B600
0004B1F2C2F200
000C34E585D000
005B05DB18A000
01D306E8098000
1C7003C105D700
ENDCHAR
STARTCHAR uni1E41
ENCODING 7745
SWIDTH 814 0
DWIDTH 9 0
BBX 9 9 0 0
BITMAP
00002E4000
0000181000
0000000000
0A94C65D50
09B87A5C60
0DB0CA3F20
3E24E19A00
980A90B610
C20B308D20
ENDCHAR
STARTCHAR uni1E56
ENCODING 7766
SWIDTH 553 0
DWIDTH 6 0
BBX 8 12 -1 0
BITMAP
00000260
000007E0
00000000
003BDBA1
00CA1089
0028806B
001E50C8
005E1AC1
00BED810
02F30000
09A00000
3C100000
ENDCHAR
STARTCHAR uni1E57
ENCODING 7767
SWIDTH 550 0
DWIDTH 6 0
BBX 7 12 -1 -3
BITMAP
0000BA00
00006400
00000000
00D6AD40
00CD2990
00F60A80
04E01E40
08C09A00
0CBC9000
1F100000
6B000000
A5000000
ENDCHAR
STARTCHAR uni1E60
ENCODING 7776
SWIDTH 474 0
DWIDTH 5 0
BBX 6 12 0 0
BITMAP
000062
0002F4
000010
005CC5
04E10E
0A904E
0B80E8
08E130
01E800
325E00
B62D00
5DB300
ENDCHAR
STARTCHAR uni1E61
ENCODING 7777
SWIDTH 423 0
DWIDTH 5 0
BBX 5 9 0 0
BITMAP
000D80
000730
000000
04CD40
0D4780
0B9000
04F300
91B600
8CA100
ENDCHAR
STARTCHAR uni1E6A
ENCODING 7786
SWIDTH 430 0
DWIDTH 5 0
BBX 7 12 0 0
BITMAP
00006200
0001F500
00001000
3DCDCB60
660D4000
003F1000
007B0000
00B70000
01F30000
05C00000
0B600000
5A000000
ENDCHAR
STARTCHAR uni1E6B
ENCODING 7787
SWIDTH 358 0
DWIDTH 4 0
BBX 5 9 0 0
BITMAP
001E60
002B20
00B700
0AEB40
08A000
0C5000
1F1000
2E1400
0CD300
ENDCHAR
STARTCHAR Wgrave
ENCODING 7808
SWIDTH 941 0
DWIDTH 10 0
BBX 11 12 0 0
BITMAP
000000500000
000001E40000
000000250000
0BC9000009B0
015E003307E0
00CA05F406E0
04F34FA007B0
09B1DE400B70
0E5A7F102E10
2E4A4D00A700
3DB13D07A000
0C500CD70000
ENDCHAR
STARTCHAR wgrave
ENCODING 7809
SWIDTH 750 0
DWIDTH 8 0
BBX 9 9 0 0
BITMAP
0000B50000
0000A60000
0000140000
0B90444D00
0890D51F10
0C47E01D00
2E2E906700
7AA882B000
7C23EA1000
ENDCHAR
STARTCHAR Wacute
ENCODING 7810
SWIDTH 941 0
DWIDTH 10 0
BBX 11 12 0 0
BITMAP
000000014000
0000000A9000
000000250000
0BC9000009B0
015E003308E0
00CA05F506E0
04F34FA007B0
09B1DE500B70
0E5A7F102E10
2F4A4D00A700
3DA13D06A000
0C500CB70000
ENDCHAR
STARTCHAR wacute
ENCODING 7811
SWIDTH 750 0
DWIDTH 8 0
BBX 9 10 0 0
BITMAP
0000010000
00000C5000
00005C1000
0000500000
0B90444D00
0890D51F10
0C47E01D00
2E2E906700
7AA882B000
7C23EA1000
ENDCHAR
STARTCHAR Wdieresis
ENCODING 7812
SWIDTH 941 0
DWIDTH 10 0
BBX 11 12 0 0
BITMAP
000004417100
00000AA3F200
000000001000
0BC9000009B0
015E003307E0
00CA05F406E0
04F34FA007B0
09B1DE400B70
0E5A7F102E10
2E4A4D00A700
3DB13D07A000
0C500CD70000
ENDCHAR
STARTCHAR wdieresis
ENCODING 7813
SWIDTH 750 0
DWIDTH 8 0
BBX 9 9 0 0
BITMAP
000AB3E300
0005418100
0000000000
0B90444D00
0890D51F10
0C47E01D00
2E2E906700
7AA882B000
7C23EA1000
ENDCHAR
STARTCHAR Ygrave
ENCODING 7922
SWIDTH 580 0
DWIDTH 6 0
BBX 8 15 0 -3
BITMAP
0000C100
0000D600
00001500
00C80087
00B801E3
01F307C0
07C01E70
0D607F20
4E11DC00
9A08C700
C647D100
8C679000
002D1000
01C40000
3B500000
ENDCHAR
STARTCHAR ygrave
ENCODING 7923
SWIDTH 549 0
DWIDTH 6 0
BBX 6 12 0 -3
BITMAP
000A50
000960
000140
08B02D
08B09B
0D62F6
4E1AF2
9A59B0
7C5A60
002D00
01C400
2B5000
ENDCHAR
STARTCHAR endash
ENCODING 8211
SWIDTH 751 0
DWIDTH 8 0
BBX 7 1 1 3
BITMAP
ABBBBB40
ENDCHAR
STARTCHAR emdash
ENCODING 8212
SWIDTH 1066 0
DWIDTH 12 0
BBX 10 1 1 3
BITMAP
9BBBBBBBBA
ENDCHAR
STARTCHAR quoteleft
ENCODING 8216
SWIDTH 268 0
DWIDTH 3 0
BBX 3 3 1 7
BITMAP
0A20
5A00
5C00
ENDCHAR
STARTCHAR quoteright
ENCODING 8217
SWIDTH 268 0
DWIDTH 3 0
BBX 3 3 1 7
BITMAP
0C50
0A50
2A00
ENDCHAR
STARTCHAR quotesinglbase
ENCODING 8218
SWIDTH 268 0
DWIDTH 3 0
BBX 2 3 0 -1
BITMAP
5C
3C
94
ENDCHAR
STARTCHAR quotedblleft
ENCODING 8220
SWIDTH 485 0
DWIDTH 5 0
BBX 5 3 1 7
BITMAP
085670
4C2E00
5C3E10
ENDCHAR
STARTCHAR quotedblright
ENCODING 8221
SWIDTH 480 0
DWIDTH 5 0
BBX 5 3 1 7
BITMAP
0986A0
097690
2A1A10
ENDCHAR
STARTCHAR quotedblbase
ENCODING 8222
SWIDTH 463 0
DWIDTH 5 0
BBX 4 3 0 -1
BITMAP
5C3D
3C1E
9475
ENDCHAR
STARTCHAR dagger
ENCODING 8224
SWIDTH 488 0
DWIDTH 5 0
BBX 5 9 1 0
BITMAP
00C500
01F500
8DFD50
08C000
0B7000
1F2000
5B0000
940000
900000
ENDCHAR
STARTCHAR daggerdbl
ENCODING 8225
SWIDTH 488 0
DWIDTH 5 0
BBX 6 9 0 0
BITMAP
000C50
001F50
08DFD5
007C00
00B800
2AFD50
04B000
094000
090000
ENDCHAR
STARTCHAR bullet
ENCODING 8226
SWIDTH 437 0
DWIDTH 5 0
BBX 3 3 1 2
BITMAP
6E90
BFC0
3820
ENDCHAR
STARTCHAR ellipsis
ENCODING 8230
SWIDTH 810 0
DWIDTH 9 0
BBX 8 2 0 0
BITMAP
9D09D0AC
56056056
ENDCHAR
STARTCHAR perthousand
ENCODING 8240
SWIDTH 1184 0
DWIDTH 13 0
BBX 13 9 0 0
BITMAP
04CC1076000000
0E3B43C0000000
2E2E2C40000000
0AC47900000000
0002D100000000
000A63A803A900
004C1E2D3E2D30
00C34C3E5C2E10
06601CC51CC500
ENDCHAR
STARTCHAR guilsinglleft
ENCODING 8249
SWIDTH 413 0
DWIDTH 5 0
BBX 4 5 0 1
BITMAP
003A
08C2
2E30
04D2
0043
ENDCHAR
STARTCHAR guilsinglright
ENCODING 8250
SWIDTH 416 0
DWIDTH 5 0
BBX 4 5 0 1
BITMAP
0970
01D6
00AB
1B70
2200
ENDCHAR
STARTCHAR fraction
ENCODING 8260
SWIDTH 580 0
DWIDTH 6 0
BBX 7 10 0 0
BITMAP
00000410
00003C00
0000B400
0005B000
000D3000
00690000
01D10000
08800000
2D100000
85000000
ENDCHAR
STARTCHAR Euro
ENCODING 8364
SWIDTH 622 0
DWIDTH 7 0
BBX 8 9 0 0
BITMAP
00008CB1
0009B1A4
005E13F2
00C80580
09FC9000
2DEA4000
08B00000
05E01500
00ACC500
ENDCHAR
STARTCHAR trademark
ENCODING 8482
SWIDTH 1084 0
DWIDTH 12 0
BBX 10 5 1 4
BITMAP
0454304013
18D978F2CA
01D01AD8A7
059084D996
05A390E297
ENDCHAR
STARTCHAR Omega
ENCODING 8486
SWIDTH 839 0
DWIDTH 9 0
BBX 9 9 0 0
BITMAP
0002530000
00AA58C200
09A0006D00
1F40000F50
3F20000D70
1F40001F50
09A0005D00
12C401C320
5ECD0ADD90
ENDCHAR
STARTCHAR partialdiff
ENCODING 8706
SWIDTH 580 0
DWIDTH 6 0
BBX 7 9 0 0
BITMAP
0009B700
005C0B20
00141B40
03DAAE30
1D805F10
6E10AB00
A902F400
980B9000
3CC80000
ENDCHAR
STARTCHAR Delta
ENCODING 8710
SWIDTH 663 0
DWIDTH 7 0
BBX 7 7 0 0
BITMAP
00053000
002DB000
0093E300
03907A00
0A201E20
48000990
BA999AC0
ENDCHAR
STARTCHAR product
ENCODING 8719
SWIDTH 667 0
DWIDTH 7 0
BBX 7 10 0 -1
BITMAP
03555520
2F433B80
2F100A80
2F100A80
2F100A80
2F100A80
2F100A80
2F100A80
2F100A80
2C000860
ENDCHAR
STARTCHAR summation
ENCODING 8721
SWIDTH 677 0
DWIDTH 7 0
BBX 7 10 0 -1
BITMAP
03555540
0EB55530
07F30000
00CC0000
002E8000
000A8000
006B0000
04D10000
2D300000
8FFFFF50
ENDCHAR
STARTCHAR minus
ENCODING 8722
SWIDTH 617 0
DWIDTH 7 0
BBX 7 2 0 3
BITMAP
16777610
15555400
ENDCHAR
STARTCHAR radical
ENCODING 8730
SWIDTH 709 0
DWIDTH 8 0
BBX 9 11 0 0
BITMAP
0000000040
00000006A0
0000000D50
0000007C00
000001D300
0330079000
4ED01D1000
22F1770000
00D4C00000
00AD500000
006B000000
ENDCHAR
STARTCHAR infinity
ENCODING 8734
SWIDTH 681 0
DWIDTH 8 0
BBX 8 4 0 2
BITMAP
07925950
4B4CD4C1
597EA5D0
07924930
ENDCHAR
STARTCHAR integral
ENCODING 8747
SWIDTH 583 0
DWIDTH 6 0
BBX 9 14 -1 -3
BITMAP
0000001400
000002D880
00000A86A0
00002F1730
00008A0000
0000D60000
0002F10000
0006C00000
000B700000
001F200000
676C000000
D3D5000000
9C90000000
0100000000
ENDCHAR
STARTCHAR approxequal
ENCODING 8776
SWIDTH 671 0
DWIDTH 7 0
BBX 7 6 0 1
BITMAP
00220010
06DF61A0
0906FD30
03960140
2B7F9A40
32049400
ENDCHAR
STARTCHAR notequal
ENCODING 8800
SWIDTH 617 0
DWIDTH 7 0
BBX 7 8 0 0
BITMAP
00000700
00008700
0788E820
034D5300
058C6610
17E66500
09500000
04000000
ENDCHAR
STARTCHAR lessequal
ENCODING 8804
SWIDTH 704 0
DWIDTH 8 0
BBX 7 8 0 0
BITMAP
00000300
00029A00
018C4000
3E800000
05C81000
0006C500
00001600
2BCCCB10
ENDCHAR
STARTCHAR greaterequal
ENCODING 8805
SWIDTH 617 0
DWIDTH 7 0
BBX 7 8 0 0
BITMAP
13000000
1AA20000
003C9100
0000BD10
003C9100
19A20000
24000000
3CCCCB00
ENDCHAR
STARTCHAR lozenge
ENCODING 9674
SWIDTH 580 0
DWIDTH 6 0
BBX 6 9 0 0
BITMAP
001200
009D10
03B880
0C21D2
58005A
3C0068
0A61C1
01DA50
007B00
ENDCHAR
STARTCHAR commaaccent
ENCODING 63171
SWIDTH 250 0
DWIDTH 3 0
BBX 3 3 0 -3
BITMAP
1600
1E20
4600
ENDCHAR
STARTCHAR ff
ENCODING 64256
SWIDTH 773 0
DWIDTH 9 0
BBX 12 12 -1 -2
BITMAP
00006C603B80
0002E3D0D3E1
000898B4C5E0
000C53288230
001F200C5000
04CFBCCFC700
02B8006B0000
00D400A70000
03F100E30000
07B004E00000
0D600A900000
2B100C200000
ENDCHAR
STARTCHAR fi
ENCODING 64257
SWIDTH 623 0
DWIDTH 7 0
BBX 9 12 -1 -2
BITMAP
00002AC700
0000C60F10
0006B03F10
000D502600
006FBAE600
05CA00D400
00B602E100
00E2089000
04D00C5000
09800AB000
1E30000000
1500000000
ENDCHAR
STARTCHAR fl
ENCODING 64258
SWIDTH 637 0
DWIDTH 7 0
BBX 9 12 -1 -2
BITMAP
00002AC800
0000D80D30
0006D00E20
000C703E00
001F207A00
02CFB5C500
01B802F100
00E407B000
03E00A7000
089007C300
1E30000000
2500000000
ENDCHAR
STARTCHAR .notdef
ENCODING -1
SWIDTH 896 0
DWIDTH 10 0
BBX 11 11 0 -1
BITMAP
0006AAAAAA70
001FFFFFFFA0
006FDCFABF50
00BF4875EF10
01EF526FFC00
04FF81FFF700
09FD40CFF300
0DE3C71AE000
2FFEFFEF9000
4FFFFFFF3000
011111110000
ENDCHAR
ENDFONT
